<mxfile host="www.draw.io" modified="2019-12-02T00:33:32.709Z" agent="Mozilla/5.0 (Windows NT 10.0; Win64; x64) AppleWebKit/537.36 (KHTML, like Gecko) Chrome/78.0.3904.108 Safari/537.36" etag="OdC-s7YAqz_R5FEADTR3" version="12.2.7" type="github" pages="3">
  <diagram name="Main-1" id="5cOg8ej0yZ3aYf5UXj4f">
    <mxGraphModel dx="1408" dy="748" grid="1" gridSize="10" guides="1" tooltips="1" connect="1" arrows="1" fold="1" page="1" pageScale="1" pageWidth="1100" pageHeight="850" background="#ffffff" math="0" shadow="0">
      <root>
        <mxCell id="4CPlkzjtZhPGL_kiiR8u-0"/>
        <mxCell id="4CPlkzjtZhPGL_kiiR8u-1" parent="4CPlkzjtZhPGL_kiiR8u-0"/>
        <mxCell id="4CPlkzjtZhPGL_kiiR8u-2" value="" style="strokeWidth=1;shadow=0;dashed=0;align=center;html=1;shape=mxgraph.mockup.containers.browserWindow;rSize=0;strokeColor=#666666;mainText=,;recursiveResize=0;rounded=0;labelBackgroundColor=none;fontFamily=Verdana;fontSize=12" parent="4CPlkzjtZhPGL_kiiR8u-1" vertex="1">
          <mxGeometry x="30" y="20" width="1050" height="820" as="geometry"/>
        </mxCell>
        <mxCell id="4CPlkzjtZhPGL_kiiR8u-3" value="Page 1" style="strokeWidth=1;shadow=0;dashed=0;align=center;html=1;shape=mxgraph.mockup.containers.anchor;fontSize=17;fontColor=#666666;align=left;" parent="4CPlkzjtZhPGL_kiiR8u-2" vertex="1">
          <mxGeometry x="60" y="12" width="110" height="26" as="geometry"/>
        </mxCell>
        <mxCell id="4CPlkzjtZhPGL_kiiR8u-4" value="https://www.default.com" style="strokeWidth=1;shadow=0;dashed=0;align=center;html=1;shape=mxgraph.mockup.containers.anchor;rSize=0;fontSize=17;fontColor=#666666;align=left;" parent="4CPlkzjtZhPGL_kiiR8u-2" vertex="1">
          <mxGeometry x="130" y="60" width="250" height="26" as="geometry"/>
        </mxCell>
        <mxCell id="4CPlkzjtZhPGL_kiiR8u-5" value="Search" style="strokeWidth=1;shadow=0;dashed=0;align=center;html=1;shape=mxgraph.mockup.forms.searchBox;strokeColor=#999999;mainText=;strokeColor2=#008cff;fontColor=#666666;fontSize=17;align=left;spacingLeft=3;rounded=0;labelBackgroundColor=none;" parent="4CPlkzjtZhPGL_kiiR8u-2" vertex="1">
          <mxGeometry x="410" y="200" width="220" height="30" as="geometry"/>
        </mxCell>
        <mxCell id="4CPlkzjtZhPGL_kiiR8u-6" value="" style="verticalLabelPosition=bottom;shadow=0;dashed=0;align=center;html=1;verticalAlign=top;strokeWidth=1;shape=mxgraph.mockup.markup.line;strokeColor=#999999;rounded=0;labelBackgroundColor=none;fillColor=#ffffff;fontFamily=Verdana;fontSize=12;fontColor=#000000;" parent="4CPlkzjtZhPGL_kiiR8u-2" vertex="1">
          <mxGeometry y="150" width="1050" height="20" as="geometry"/>
        </mxCell>
        <mxCell id="4CPlkzjtZhPGL_kiiR8u-7" value="" style="verticalLabelPosition=bottom;shadow=0;dashed=0;align=center;html=1;verticalAlign=top;strokeWidth=1;shape=mxgraph.mockup.markup.line;strokeColor=#999999;rounded=0;labelBackgroundColor=none;fillColor=#ffffff;fontFamily=Verdana;fontSize=12;fontColor=#000000;" parent="4CPlkzjtZhPGL_kiiR8u-2" vertex="1">
          <mxGeometry y="100" width="1050" height="20" as="geometry"/>
        </mxCell>
        <mxCell id="4CPlkzjtZhPGL_kiiR8u-8" value="LOGO" style="text;html=1;points=[];align=center;verticalAlign=middle;spacingTop=-4;fontSize=30;fontFamily=Verdana;fontColor=#000000;" parent="4CPlkzjtZhPGL_kiiR8u-2" vertex="1">
          <mxGeometry y="110" width="110" height="50" as="geometry"/>
        </mxCell>
        <mxCell id="4CPlkzjtZhPGL_kiiR8u-9" value="MENU2" style="text;html=1;points=[];align=center;verticalAlign=middle;spacingTop=-4;fontSize=18;fontFamily=Verdana;fontColor=#000000;" parent="4CPlkzjtZhPGL_kiiR8u-2" vertex="1">
          <mxGeometry x="220" y="110" width="110" height="50" as="geometry"/>
        </mxCell>
        <mxCell id="4CPlkzjtZhPGL_kiiR8u-10" value="MENU1" style="text;html=1;points=[];align=center;verticalAlign=middle;spacingTop=-4;fontSize=18;fontFamily=Verdana;fontColor=#000000;" parent="4CPlkzjtZhPGL_kiiR8u-2" vertex="1">
          <mxGeometry x="110" y="110" width="110" height="50" as="geometry"/>
        </mxCell>
        <mxCell id="4CPlkzjtZhPGL_kiiR8u-11" value="" style="pointerEvents=1;shadow=0;dashed=0;html=1;strokeColor=none;fillColor=#505050;labelPosition=center;verticalLabelPosition=bottom;verticalAlign=top;outlineConnect=0;align=center;shape=mxgraph.office.users.user;" parent="4CPlkzjtZhPGL_kiiR8u-2" vertex="1">
          <mxGeometry x="991.5" y="117" width="30" height="33" as="geometry"/>
        </mxCell>
        <mxCell id="4CPlkzjtZhPGL_kiiR8u-12" value="&lt;table border=&quot;1&quot; width=&quot;100%&quot; height=&quot;100%&quot; style=&quot;width:100%;height:100%;border-collapse:collapse;&quot;&gt;&lt;tr&gt;&lt;td align=&quot;center&quot;&gt;Value 1&lt;/td&gt;&lt;td align=&quot;center&quot;&gt;Value 2&lt;/td&gt;&lt;td align=&quot;center&quot;&gt;Value 3&lt;/td&gt;&lt;/tr&gt;&lt;tr&gt;&lt;td align=&quot;center&quot;&gt;Value 4&lt;/td&gt;&lt;td align=&quot;center&quot;&gt;Value 5&lt;/td&gt;&lt;td align=&quot;center&quot;&gt;Value 6&lt;/td&gt;&lt;/tr&gt;&lt;tr&gt;&lt;td align=&quot;center&quot;&gt;Value 7&lt;/td&gt;&lt;td align=&quot;center&quot;&gt;Value 8&lt;/td&gt;&lt;td align=&quot;center&quot;&gt;Value 9&lt;/td&gt;&lt;/tr&gt;&lt;/table&gt;" style="text;html=1;strokeColor=#999999;fillColor=#ffffff;overflow=fill;rounded=0;shadow=0;dashed=0;fontFamily=Verdana;align=center;strokeWidth=1;labelBackgroundColor=none;textOpacity=20;" parent="4CPlkzjtZhPGL_kiiR8u-2" vertex="1">
          <mxGeometry x="40" y="300" width="180" height="140" as="geometry"/>
        </mxCell>
        <mxCell id="4CPlkzjtZhPGL_kiiR8u-18" value="" style="rounded=0;whiteSpace=wrap;html=1;shadow=0;dashed=0;fontFamily=Verdana;verticalAlign=top;strokeColor=#333333;strokeWidth=2;gradientColor=none;labelBackgroundColor=none;" parent="4CPlkzjtZhPGL_kiiR8u-2" vertex="1">
          <mxGeometry x="69" y="325" width="122" height="90" as="geometry"/>
        </mxCell>
        <mxCell id="4CPlkzjtZhPGL_kiiR8u-19" value="&lt;table border=&quot;1&quot; width=&quot;100%&quot; height=&quot;100%&quot; style=&quot;width:100%;height:100%;border-collapse:collapse;&quot;&gt;&lt;tr&gt;&lt;td align=&quot;center&quot;&gt;Value 1&lt;/td&gt;&lt;td align=&quot;center&quot;&gt;Value 2&lt;/td&gt;&lt;td align=&quot;center&quot;&gt;Value 3&lt;/td&gt;&lt;/tr&gt;&lt;tr&gt;&lt;td align=&quot;center&quot;&gt;Value 4&lt;/td&gt;&lt;td align=&quot;center&quot;&gt;Value 5&lt;/td&gt;&lt;td align=&quot;center&quot;&gt;Value 6&lt;/td&gt;&lt;/tr&gt;&lt;tr&gt;&lt;td align=&quot;center&quot;&gt;Value 7&lt;/td&gt;&lt;td align=&quot;center&quot;&gt;Value 8&lt;/td&gt;&lt;td align=&quot;center&quot;&gt;Value 9&lt;/td&gt;&lt;/tr&gt;&lt;/table&gt;" style="text;html=1;strokeColor=#999999;fillColor=#ffffff;overflow=fill;rounded=0;shadow=0;dashed=0;fontFamily=Verdana;align=center;strokeWidth=1;labelBackgroundColor=none;textOpacity=20;" parent="4CPlkzjtZhPGL_kiiR8u-2" vertex="1">
          <mxGeometry x="244" y="300" width="180" height="140" as="geometry"/>
        </mxCell>
        <mxCell id="4CPlkzjtZhPGL_kiiR8u-20" value="" style="rounded=0;whiteSpace=wrap;html=1;shadow=0;dashed=0;fontFamily=Verdana;verticalAlign=top;strokeColor=#333333;strokeWidth=2;gradientColor=none;labelBackgroundColor=none;" parent="4CPlkzjtZhPGL_kiiR8u-2" vertex="1">
          <mxGeometry x="273" y="325" width="122" height="90" as="geometry"/>
        </mxCell>
        <mxCell id="4CPlkzjtZhPGL_kiiR8u-21" value="&lt;table border=&quot;1&quot; width=&quot;100%&quot; height=&quot;100%&quot; style=&quot;width:100%;height:100%;border-collapse:collapse;&quot;&gt;&lt;tbody&gt;&lt;tr&gt;&lt;td align=&quot;center&quot;&gt;Value 1&lt;/td&gt;&lt;td align=&quot;center&quot;&gt;Value 2&lt;/td&gt;&lt;td align=&quot;center&quot;&gt;Value 3&lt;/td&gt;&lt;/tr&gt;&lt;tr&gt;&lt;td align=&quot;center&quot;&gt;Value 4&lt;/td&gt;&lt;td align=&quot;center&quot;&gt;Value 5&lt;/td&gt;&lt;td align=&quot;center&quot;&gt;Value 6&lt;/td&gt;&lt;/tr&gt;&lt;tr&gt;&lt;td align=&quot;center&quot;&gt;Value 7&lt;/td&gt;&lt;td align=&quot;center&quot;&gt;Value 8&lt;/td&gt;&lt;td align=&quot;center&quot;&gt;Value 9&lt;/td&gt;&lt;/tr&gt;&lt;/tbody&gt;&lt;/table&gt;" style="text;html=1;strokeColor=#999999;fillColor=#ffffff;overflow=fill;rounded=0;shadow=0;dashed=0;fontFamily=Verdana;align=center;strokeWidth=1;labelBackgroundColor=none;textOpacity=20;fontStyle=1" parent="4CPlkzjtZhPGL_kiiR8u-2" vertex="1">
          <mxGeometry x="444" y="300" width="180" height="140" as="geometry"/>
        </mxCell>
        <mxCell id="4CPlkzjtZhPGL_kiiR8u-22" value="" style="rounded=0;whiteSpace=wrap;html=1;shadow=0;dashed=0;fontFamily=Verdana;verticalAlign=top;strokeColor=#333333;strokeWidth=2;gradientColor=none;labelBackgroundColor=none;fontStyle=1" parent="4CPlkzjtZhPGL_kiiR8u-2" vertex="1">
          <mxGeometry x="473" y="325" width="122" height="90" as="geometry"/>
        </mxCell>
        <mxCell id="4CPlkzjtZhPGL_kiiR8u-23" value="&lt;table border=&quot;1&quot; width=&quot;100%&quot; height=&quot;100%&quot; style=&quot;width:100%;height:100%;border-collapse:collapse;&quot;&gt;&lt;tbody&gt;&lt;tr&gt;&lt;td align=&quot;center&quot;&gt;Value 1&lt;/td&gt;&lt;td align=&quot;center&quot;&gt;Value 2&lt;/td&gt;&lt;td align=&quot;center&quot;&gt;Value 3&lt;/td&gt;&lt;/tr&gt;&lt;tr&gt;&lt;td align=&quot;center&quot;&gt;Value 4&lt;/td&gt;&lt;td align=&quot;center&quot;&gt;Value 5&lt;/td&gt;&lt;td align=&quot;center&quot;&gt;Value 6&lt;/td&gt;&lt;/tr&gt;&lt;tr&gt;&lt;td align=&quot;center&quot;&gt;Value 7&lt;/td&gt;&lt;td align=&quot;center&quot;&gt;Value 8&lt;/td&gt;&lt;td align=&quot;center&quot;&gt;Value 9&lt;/td&gt;&lt;/tr&gt;&lt;/tbody&gt;&lt;/table&gt;" style="text;html=1;strokeColor=#999999;fillColor=#ffffff;overflow=fill;rounded=0;shadow=0;dashed=0;fontFamily=Verdana;align=center;strokeWidth=1;labelBackgroundColor=none;textOpacity=20;fontStyle=1" parent="4CPlkzjtZhPGL_kiiR8u-2" vertex="1">
          <mxGeometry x="644" y="300" width="180" height="140" as="geometry"/>
        </mxCell>
        <mxCell id="4CPlkzjtZhPGL_kiiR8u-24" value="" style="rounded=0;whiteSpace=wrap;html=1;shadow=0;dashed=0;fontFamily=Verdana;verticalAlign=top;strokeColor=#333333;strokeWidth=2;gradientColor=none;labelBackgroundColor=none;fontStyle=1" parent="4CPlkzjtZhPGL_kiiR8u-2" vertex="1">
          <mxGeometry x="673" y="325" width="122" height="90" as="geometry"/>
        </mxCell>
        <mxCell id="4CPlkzjtZhPGL_kiiR8u-25" value="&lt;table border=&quot;1&quot; width=&quot;100%&quot; height=&quot;100%&quot; style=&quot;width:100%;height:100%;border-collapse:collapse;&quot;&gt;&lt;tbody&gt;&lt;tr&gt;&lt;td align=&quot;center&quot;&gt;Value 1&lt;/td&gt;&lt;td align=&quot;center&quot;&gt;Value 2&lt;/td&gt;&lt;td align=&quot;center&quot;&gt;Value 3&lt;/td&gt;&lt;/tr&gt;&lt;tr&gt;&lt;td align=&quot;center&quot;&gt;Value 4&lt;/td&gt;&lt;td align=&quot;center&quot;&gt;Value 5&lt;/td&gt;&lt;td align=&quot;center&quot;&gt;Value 6&lt;/td&gt;&lt;/tr&gt;&lt;tr&gt;&lt;td align=&quot;center&quot;&gt;Value 7&lt;/td&gt;&lt;td align=&quot;center&quot;&gt;Value 8&lt;/td&gt;&lt;td align=&quot;center&quot;&gt;Value 9&lt;/td&gt;&lt;/tr&gt;&lt;/tbody&gt;&lt;/table&gt;" style="text;html=1;strokeColor=#999999;fillColor=#ffffff;overflow=fill;rounded=0;shadow=0;dashed=0;fontFamily=Verdana;align=center;strokeWidth=1;labelBackgroundColor=none;textOpacity=20;fontStyle=1" parent="4CPlkzjtZhPGL_kiiR8u-2" vertex="1">
          <mxGeometry x="850" y="300" width="180" height="140" as="geometry"/>
        </mxCell>
        <mxCell id="4CPlkzjtZhPGL_kiiR8u-26" value="" style="rounded=0;whiteSpace=wrap;html=1;shadow=0;dashed=0;fontFamily=Verdana;verticalAlign=top;strokeColor=#333333;strokeWidth=2;gradientColor=none;labelBackgroundColor=none;fontStyle=1" parent="4CPlkzjtZhPGL_kiiR8u-2" vertex="1">
          <mxGeometry x="879" y="325" width="122" height="90" as="geometry"/>
        </mxCell>
        <mxCell id="4CPlkzjtZhPGL_kiiR8u-27" value="&lt;table border=&quot;1&quot; width=&quot;100%&quot; height=&quot;100%&quot; style=&quot;width:100%;height:100%;border-collapse:collapse;&quot;&gt;&lt;tbody&gt;&lt;tr&gt;&lt;td align=&quot;center&quot;&gt;Value 1&lt;/td&gt;&lt;td align=&quot;center&quot;&gt;Value 2&lt;/td&gt;&lt;td align=&quot;center&quot;&gt;Value 3&lt;/td&gt;&lt;/tr&gt;&lt;tr&gt;&lt;td align=&quot;center&quot;&gt;Value 4&lt;/td&gt;&lt;td align=&quot;center&quot;&gt;Value 5&lt;/td&gt;&lt;td align=&quot;center&quot;&gt;Value 6&lt;/td&gt;&lt;/tr&gt;&lt;tr&gt;&lt;td align=&quot;center&quot;&gt;Value 7&lt;/td&gt;&lt;td align=&quot;center&quot;&gt;Value 8&lt;/td&gt;&lt;td align=&quot;center&quot;&gt;Value 9&lt;/td&gt;&lt;/tr&gt;&lt;/tbody&gt;&lt;/table&gt;" style="text;html=1;strokeColor=#999999;fillColor=#ffffff;overflow=fill;rounded=0;shadow=0;dashed=0;fontFamily=Verdana;align=center;strokeWidth=1;labelBackgroundColor=none;textOpacity=20;fontStyle=1" parent="4CPlkzjtZhPGL_kiiR8u-2" vertex="1">
          <mxGeometry x="39" y="460" width="180" height="140" as="geometry"/>
        </mxCell>
        <mxCell id="4CPlkzjtZhPGL_kiiR8u-28" value="" style="rounded=0;whiteSpace=wrap;html=1;shadow=0;dashed=0;fontFamily=Verdana;verticalAlign=top;strokeColor=#333333;strokeWidth=2;gradientColor=none;labelBackgroundColor=none;fontStyle=1" parent="4CPlkzjtZhPGL_kiiR8u-2" vertex="1">
          <mxGeometry x="68" y="485" width="122" height="90" as="geometry"/>
        </mxCell>
        <mxCell id="4CPlkzjtZhPGL_kiiR8u-29" value="&lt;table border=&quot;1&quot; width=&quot;100%&quot; height=&quot;100%&quot; style=&quot;width:100%;height:100%;border-collapse:collapse;&quot;&gt;&lt;tbody&gt;&lt;tr&gt;&lt;td align=&quot;center&quot;&gt;Value 1&lt;/td&gt;&lt;td align=&quot;center&quot;&gt;Value 2&lt;/td&gt;&lt;td align=&quot;center&quot;&gt;Value 3&lt;/td&gt;&lt;/tr&gt;&lt;tr&gt;&lt;td align=&quot;center&quot;&gt;Value 4&lt;/td&gt;&lt;td align=&quot;center&quot;&gt;Value 5&lt;/td&gt;&lt;td align=&quot;center&quot;&gt;Value 6&lt;/td&gt;&lt;/tr&gt;&lt;tr&gt;&lt;td align=&quot;center&quot;&gt;Value 7&lt;/td&gt;&lt;td align=&quot;center&quot;&gt;Value 8&lt;/td&gt;&lt;td align=&quot;center&quot;&gt;Value 9&lt;/td&gt;&lt;/tr&gt;&lt;/tbody&gt;&lt;/table&gt;" style="text;html=1;strokeColor=#999999;fillColor=#ffffff;overflow=fill;rounded=0;shadow=0;dashed=0;fontFamily=Verdana;align=center;strokeWidth=1;labelBackgroundColor=none;textOpacity=20;fontStyle=1" parent="4CPlkzjtZhPGL_kiiR8u-2" vertex="1">
          <mxGeometry x="243" y="460" width="180" height="140" as="geometry"/>
        </mxCell>
        <mxCell id="4CPlkzjtZhPGL_kiiR8u-30" value="" style="rounded=0;whiteSpace=wrap;html=1;shadow=0;dashed=0;fontFamily=Verdana;verticalAlign=top;strokeColor=#333333;strokeWidth=2;gradientColor=none;labelBackgroundColor=none;fontStyle=1" parent="4CPlkzjtZhPGL_kiiR8u-2" vertex="1">
          <mxGeometry x="272" y="485" width="122" height="90" as="geometry"/>
        </mxCell>
        <mxCell id="4CPlkzjtZhPGL_kiiR8u-31" value="&lt;table border=&quot;1&quot; width=&quot;100%&quot; height=&quot;100%&quot; style=&quot;width:100%;height:100%;border-collapse:collapse;&quot;&gt;&lt;tbody&gt;&lt;tr&gt;&lt;td align=&quot;center&quot;&gt;Value 1&lt;/td&gt;&lt;td align=&quot;center&quot;&gt;Value 2&lt;/td&gt;&lt;td align=&quot;center&quot;&gt;Value 3&lt;/td&gt;&lt;/tr&gt;&lt;tr&gt;&lt;td align=&quot;center&quot;&gt;Value 4&lt;/td&gt;&lt;td align=&quot;center&quot;&gt;Value 5&lt;/td&gt;&lt;td align=&quot;center&quot;&gt;Value 6&lt;/td&gt;&lt;/tr&gt;&lt;tr&gt;&lt;td align=&quot;center&quot;&gt;Value 7&lt;/td&gt;&lt;td align=&quot;center&quot;&gt;Value 8&lt;/td&gt;&lt;td align=&quot;center&quot;&gt;Value 9&lt;/td&gt;&lt;/tr&gt;&lt;/tbody&gt;&lt;/table&gt;" style="text;html=1;strokeColor=#999999;fillColor=#ffffff;overflow=fill;rounded=0;shadow=0;dashed=0;fontFamily=Verdana;align=center;strokeWidth=1;labelBackgroundColor=none;textOpacity=20;fontStyle=1" parent="4CPlkzjtZhPGL_kiiR8u-2" vertex="1">
          <mxGeometry x="443" y="460" width="180" height="140" as="geometry"/>
        </mxCell>
        <mxCell id="4CPlkzjtZhPGL_kiiR8u-32" value="" style="rounded=0;whiteSpace=wrap;html=1;shadow=0;dashed=0;fontFamily=Verdana;verticalAlign=top;strokeColor=#333333;strokeWidth=2;gradientColor=none;labelBackgroundColor=none;fontStyle=1" parent="4CPlkzjtZhPGL_kiiR8u-2" vertex="1">
          <mxGeometry x="472" y="485" width="122" height="90" as="geometry"/>
        </mxCell>
        <mxCell id="4CPlkzjtZhPGL_kiiR8u-33" value="&lt;table border=&quot;1&quot; width=&quot;100%&quot; height=&quot;100%&quot; style=&quot;width:100%;height:100%;border-collapse:collapse;&quot;&gt;&lt;tbody&gt;&lt;tr&gt;&lt;td align=&quot;center&quot;&gt;Value 1&lt;/td&gt;&lt;td align=&quot;center&quot;&gt;Value 2&lt;/td&gt;&lt;td align=&quot;center&quot;&gt;Value 3&lt;/td&gt;&lt;/tr&gt;&lt;tr&gt;&lt;td align=&quot;center&quot;&gt;Value 4&lt;/td&gt;&lt;td align=&quot;center&quot;&gt;Value 5&lt;/td&gt;&lt;td align=&quot;center&quot;&gt;Value 6&lt;/td&gt;&lt;/tr&gt;&lt;tr&gt;&lt;td align=&quot;center&quot;&gt;Value 7&lt;/td&gt;&lt;td align=&quot;center&quot;&gt;Value 8&lt;/td&gt;&lt;td align=&quot;center&quot;&gt;Value 9&lt;/td&gt;&lt;/tr&gt;&lt;/tbody&gt;&lt;/table&gt;" style="text;html=1;strokeColor=#999999;fillColor=#ffffff;overflow=fill;rounded=0;shadow=0;dashed=0;fontFamily=Verdana;align=center;strokeWidth=1;labelBackgroundColor=none;textOpacity=20;fontStyle=1" parent="4CPlkzjtZhPGL_kiiR8u-2" vertex="1">
          <mxGeometry x="643" y="460" width="180" height="140" as="geometry"/>
        </mxCell>
        <mxCell id="4CPlkzjtZhPGL_kiiR8u-34" value="" style="rounded=0;whiteSpace=wrap;html=1;shadow=0;dashed=0;fontFamily=Verdana;verticalAlign=top;strokeColor=#333333;strokeWidth=2;gradientColor=none;labelBackgroundColor=none;fontStyle=1" parent="4CPlkzjtZhPGL_kiiR8u-2" vertex="1">
          <mxGeometry x="672" y="485" width="122" height="90" as="geometry"/>
        </mxCell>
        <mxCell id="4CPlkzjtZhPGL_kiiR8u-35" value="&lt;table border=&quot;1&quot; width=&quot;100%&quot; height=&quot;100%&quot; style=&quot;width:100%;height:100%;border-collapse:collapse;&quot;&gt;&lt;tbody&gt;&lt;tr&gt;&lt;td align=&quot;center&quot;&gt;Value 1&lt;/td&gt;&lt;td align=&quot;center&quot;&gt;Value 2&lt;/td&gt;&lt;td align=&quot;center&quot;&gt;Value 3&lt;/td&gt;&lt;/tr&gt;&lt;tr&gt;&lt;td align=&quot;center&quot;&gt;Value 4&lt;/td&gt;&lt;td align=&quot;center&quot;&gt;Value 5&lt;/td&gt;&lt;td align=&quot;center&quot;&gt;Value 6&lt;/td&gt;&lt;/tr&gt;&lt;tr&gt;&lt;td align=&quot;center&quot;&gt;Value 7&lt;/td&gt;&lt;td align=&quot;center&quot;&gt;Value 8&lt;/td&gt;&lt;td align=&quot;center&quot;&gt;Value 9&lt;/td&gt;&lt;/tr&gt;&lt;/tbody&gt;&lt;/table&gt;" style="text;html=1;strokeColor=#999999;fillColor=#ffffff;overflow=fill;rounded=0;shadow=0;dashed=0;fontFamily=Verdana;align=center;strokeWidth=1;labelBackgroundColor=none;textOpacity=20;fontStyle=1" parent="4CPlkzjtZhPGL_kiiR8u-2" vertex="1">
          <mxGeometry x="849" y="460" width="180" height="140" as="geometry"/>
        </mxCell>
        <mxCell id="4CPlkzjtZhPGL_kiiR8u-36" value="" style="rounded=0;whiteSpace=wrap;html=1;shadow=0;dashed=0;fontFamily=Verdana;verticalAlign=top;strokeColor=#333333;strokeWidth=2;gradientColor=none;labelBackgroundColor=none;fontStyle=1" parent="4CPlkzjtZhPGL_kiiR8u-2" vertex="1">
          <mxGeometry x="878" y="485" width="122" height="90" as="geometry"/>
        </mxCell>
        <mxCell id="4CPlkzjtZhPGL_kiiR8u-37" value="&lt;table border=&quot;1&quot; width=&quot;100%&quot; height=&quot;100%&quot; style=&quot;width:100%;height:100%;border-collapse:collapse;&quot;&gt;&lt;tbody&gt;&lt;tr&gt;&lt;td align=&quot;center&quot;&gt;Value 1&lt;/td&gt;&lt;td align=&quot;center&quot;&gt;Value 2&lt;/td&gt;&lt;td align=&quot;center&quot;&gt;Value 3&lt;/td&gt;&lt;/tr&gt;&lt;tr&gt;&lt;td align=&quot;center&quot;&gt;Value 4&lt;/td&gt;&lt;td align=&quot;center&quot;&gt;Value 5&lt;/td&gt;&lt;td align=&quot;center&quot;&gt;Value 6&lt;/td&gt;&lt;/tr&gt;&lt;tr&gt;&lt;td align=&quot;center&quot;&gt;Value 7&lt;/td&gt;&lt;td align=&quot;center&quot;&gt;Value 8&lt;/td&gt;&lt;td align=&quot;center&quot;&gt;Value 9&lt;/td&gt;&lt;/tr&gt;&lt;/tbody&gt;&lt;/table&gt;" style="text;html=1;strokeColor=#999999;fillColor=#ffffff;overflow=fill;rounded=0;shadow=0;dashed=0;fontFamily=Verdana;align=center;strokeWidth=1;labelBackgroundColor=none;textOpacity=20;fontStyle=1" parent="4CPlkzjtZhPGL_kiiR8u-2" vertex="1">
          <mxGeometry x="40" y="620" width="180" height="140" as="geometry"/>
        </mxCell>
        <mxCell id="4CPlkzjtZhPGL_kiiR8u-38" value="" style="rounded=0;whiteSpace=wrap;html=1;shadow=0;dashed=0;fontFamily=Verdana;verticalAlign=top;strokeColor=#333333;strokeWidth=2;gradientColor=none;labelBackgroundColor=none;fontStyle=1" parent="4CPlkzjtZhPGL_kiiR8u-2" vertex="1">
          <mxGeometry x="69" y="645" width="122" height="90" as="geometry"/>
        </mxCell>
        <mxCell id="4CPlkzjtZhPGL_kiiR8u-39" value="&lt;table border=&quot;1&quot; width=&quot;100%&quot; height=&quot;100%&quot; style=&quot;width:100%;height:100%;border-collapse:collapse;&quot;&gt;&lt;tbody&gt;&lt;tr&gt;&lt;td align=&quot;center&quot;&gt;Value 1&lt;/td&gt;&lt;td align=&quot;center&quot;&gt;Value 2&lt;/td&gt;&lt;td align=&quot;center&quot;&gt;Value 3&lt;/td&gt;&lt;/tr&gt;&lt;tr&gt;&lt;td align=&quot;center&quot;&gt;Value 4&lt;/td&gt;&lt;td align=&quot;center&quot;&gt;Value 5&lt;/td&gt;&lt;td align=&quot;center&quot;&gt;Value 6&lt;/td&gt;&lt;/tr&gt;&lt;tr&gt;&lt;td align=&quot;center&quot;&gt;Value 7&lt;/td&gt;&lt;td align=&quot;center&quot;&gt;Value 8&lt;/td&gt;&lt;td align=&quot;center&quot;&gt;Value 9&lt;/td&gt;&lt;/tr&gt;&lt;/tbody&gt;&lt;/table&gt;" style="text;html=1;strokeColor=#999999;fillColor=#ffffff;overflow=fill;rounded=0;shadow=0;dashed=0;fontFamily=Verdana;align=center;strokeWidth=1;labelBackgroundColor=none;textOpacity=20;fontStyle=1" parent="4CPlkzjtZhPGL_kiiR8u-2" vertex="1">
          <mxGeometry x="240" y="620" width="180" height="140" as="geometry"/>
        </mxCell>
        <mxCell id="4CPlkzjtZhPGL_kiiR8u-40" value="" style="rounded=0;whiteSpace=wrap;html=1;shadow=0;dashed=0;fontFamily=Verdana;verticalAlign=top;strokeColor=#333333;strokeWidth=2;gradientColor=none;labelBackgroundColor=none;fontStyle=1" parent="4CPlkzjtZhPGL_kiiR8u-2" vertex="1">
          <mxGeometry x="269" y="645" width="122" height="90" as="geometry"/>
        </mxCell>
        <mxCell id="4CPlkzjtZhPGL_kiiR8u-41" value="&lt;table border=&quot;1&quot; width=&quot;100%&quot; height=&quot;100%&quot; style=&quot;width:100%;height:100%;border-collapse:collapse;&quot;&gt;&lt;tbody&gt;&lt;tr&gt;&lt;td align=&quot;center&quot;&gt;Value 1&lt;/td&gt;&lt;td align=&quot;center&quot;&gt;Value 2&lt;/td&gt;&lt;td align=&quot;center&quot;&gt;Value 3&lt;/td&gt;&lt;/tr&gt;&lt;tr&gt;&lt;td align=&quot;center&quot;&gt;Value 4&lt;/td&gt;&lt;td align=&quot;center&quot;&gt;Value 5&lt;/td&gt;&lt;td align=&quot;center&quot;&gt;Value 6&lt;/td&gt;&lt;/tr&gt;&lt;tr&gt;&lt;td align=&quot;center&quot;&gt;Value 7&lt;/td&gt;&lt;td align=&quot;center&quot;&gt;Value 8&lt;/td&gt;&lt;td align=&quot;center&quot;&gt;Value 9&lt;/td&gt;&lt;/tr&gt;&lt;/tbody&gt;&lt;/table&gt;" style="text;html=1;strokeColor=#999999;fillColor=#ffffff;overflow=fill;rounded=0;shadow=0;dashed=0;fontFamily=Verdana;align=center;strokeWidth=1;labelBackgroundColor=none;textOpacity=20;fontStyle=1" parent="4CPlkzjtZhPGL_kiiR8u-2" vertex="1">
          <mxGeometry x="444" y="620" width="180" height="140" as="geometry"/>
        </mxCell>
        <mxCell id="4CPlkzjtZhPGL_kiiR8u-42" value="" style="rounded=0;whiteSpace=wrap;html=1;shadow=0;dashed=0;fontFamily=Verdana;verticalAlign=top;strokeColor=#333333;strokeWidth=2;gradientColor=none;labelBackgroundColor=none;fontStyle=1" parent="4CPlkzjtZhPGL_kiiR8u-2" vertex="1">
          <mxGeometry x="473" y="645" width="122" height="90" as="geometry"/>
        </mxCell>
        <mxCell id="4CPlkzjtZhPGL_kiiR8u-43" value="&lt;table border=&quot;1&quot; width=&quot;100%&quot; height=&quot;100%&quot; style=&quot;width:100%;height:100%;border-collapse:collapse;&quot;&gt;&lt;tbody&gt;&lt;tr&gt;&lt;td align=&quot;center&quot;&gt;Value 1&lt;/td&gt;&lt;td align=&quot;center&quot;&gt;Value 2&lt;/td&gt;&lt;td align=&quot;center&quot;&gt;Value 3&lt;/td&gt;&lt;/tr&gt;&lt;tr&gt;&lt;td align=&quot;center&quot;&gt;Value 4&lt;/td&gt;&lt;td align=&quot;center&quot;&gt;Value 5&lt;/td&gt;&lt;td align=&quot;center&quot;&gt;Value 6&lt;/td&gt;&lt;/tr&gt;&lt;tr&gt;&lt;td align=&quot;center&quot;&gt;Value 7&lt;/td&gt;&lt;td align=&quot;center&quot;&gt;Value 8&lt;/td&gt;&lt;td align=&quot;center&quot;&gt;Value 9&lt;/td&gt;&lt;/tr&gt;&lt;/tbody&gt;&lt;/table&gt;" style="text;html=1;strokeColor=#999999;fillColor=#ffffff;overflow=fill;rounded=0;shadow=0;dashed=0;fontFamily=Verdana;align=center;strokeWidth=1;labelBackgroundColor=none;textOpacity=20;fontStyle=1" parent="4CPlkzjtZhPGL_kiiR8u-2" vertex="1">
          <mxGeometry x="644" y="620" width="180" height="140" as="geometry"/>
        </mxCell>
        <mxCell id="4CPlkzjtZhPGL_kiiR8u-44" value="" style="rounded=0;whiteSpace=wrap;html=1;shadow=0;dashed=0;fontFamily=Verdana;verticalAlign=top;strokeColor=#333333;strokeWidth=2;gradientColor=none;labelBackgroundColor=none;fontStyle=1" parent="4CPlkzjtZhPGL_kiiR8u-2" vertex="1">
          <mxGeometry x="673" y="645" width="122" height="90" as="geometry"/>
        </mxCell>
        <mxCell id="4CPlkzjtZhPGL_kiiR8u-45" value="&lt;table border=&quot;1&quot; width=&quot;100%&quot; height=&quot;100%&quot; style=&quot;width:100%;height:100%;border-collapse:collapse;&quot;&gt;&lt;tbody&gt;&lt;tr&gt;&lt;td align=&quot;center&quot;&gt;Value 1&lt;/td&gt;&lt;td align=&quot;center&quot;&gt;Value 2&lt;/td&gt;&lt;td align=&quot;center&quot;&gt;Value 3&lt;/td&gt;&lt;/tr&gt;&lt;tr&gt;&lt;td align=&quot;center&quot;&gt;Value 4&lt;/td&gt;&lt;td align=&quot;center&quot;&gt;Value 5&lt;/td&gt;&lt;td align=&quot;center&quot;&gt;Value 6&lt;/td&gt;&lt;/tr&gt;&lt;tr&gt;&lt;td align=&quot;center&quot;&gt;Value 7&lt;/td&gt;&lt;td align=&quot;center&quot;&gt;Value 8&lt;/td&gt;&lt;td align=&quot;center&quot;&gt;Value 9&lt;/td&gt;&lt;/tr&gt;&lt;/tbody&gt;&lt;/table&gt;" style="text;html=1;strokeColor=#999999;fillColor=#ffffff;overflow=fill;rounded=0;shadow=0;dashed=0;fontFamily=Verdana;align=center;strokeWidth=1;labelBackgroundColor=none;textOpacity=20;fontStyle=1" parent="4CPlkzjtZhPGL_kiiR8u-2" vertex="1">
          <mxGeometry x="850" y="620" width="180" height="140" as="geometry"/>
        </mxCell>
        <mxCell id="4CPlkzjtZhPGL_kiiR8u-46" value="" style="rounded=0;whiteSpace=wrap;html=1;shadow=0;dashed=0;fontFamily=Verdana;verticalAlign=top;strokeColor=#333333;strokeWidth=2;gradientColor=none;labelBackgroundColor=none;fontStyle=1" parent="4CPlkzjtZhPGL_kiiR8u-2" vertex="1">
          <mxGeometry x="879" y="645" width="122" height="90" as="geometry"/>
        </mxCell>
      </root>
    </mxGraphModel>
  </diagram>
  <diagram name="Main-1_MouseOver" id="_L3QZDGZdCQ-NhADDpk-">
    <mxGraphModel dx="1408" dy="748" grid="1" gridSize="10" guides="1" tooltips="1" connect="1" arrows="1" fold="1" page="1" pageScale="1" pageWidth="1100" pageHeight="850" background="#ffffff" math="0" shadow="0">
      <root>
        <mxCell id="B375BskBMubbX5btha5O-0"/>
        <mxCell id="B375BskBMubbX5btha5O-1" parent="B375BskBMubbX5btha5O-0"/>
        <mxCell id="B375BskBMubbX5btha5O-2" value="" style="strokeWidth=1;shadow=0;dashed=0;align=center;html=1;shape=mxgraph.mockup.containers.browserWindow;rSize=0;strokeColor=#666666;mainText=,;recursiveResize=0;rounded=0;labelBackgroundColor=none;fontFamily=Verdana;fontSize=12" vertex="1" parent="B375BskBMubbX5btha5O-1">
          <mxGeometry x="30" y="20" width="1050" height="820" as="geometry"/>
        </mxCell>
        <mxCell id="B375BskBMubbX5btha5O-3" value="Page 1" style="strokeWidth=1;shadow=0;dashed=0;align=center;html=1;shape=mxgraph.mockup.containers.anchor;fontSize=17;fontColor=#666666;align=left;" vertex="1" parent="B375BskBMubbX5btha5O-2">
          <mxGeometry x="60" y="12" width="110" height="26" as="geometry"/>
        </mxCell>
        <mxCell id="B375BskBMubbX5btha5O-4" value="https://www.default.com" style="strokeWidth=1;shadow=0;dashed=0;align=center;html=1;shape=mxgraph.mockup.containers.anchor;rSize=0;fontSize=17;fontColor=#666666;align=left;" vertex="1" parent="B375BskBMubbX5btha5O-2">
          <mxGeometry x="130" y="60" width="250" height="26" as="geometry"/>
        </mxCell>
        <mxCell id="B375BskBMubbX5btha5O-5" value="Search" style="strokeWidth=1;shadow=0;dashed=0;align=center;html=1;shape=mxgraph.mockup.forms.searchBox;strokeColor=#999999;mainText=;strokeColor2=#008cff;fontColor=#666666;fontSize=17;align=left;spacingLeft=3;rounded=0;labelBackgroundColor=none;" vertex="1" parent="B375BskBMubbX5btha5O-2">
          <mxGeometry x="410" y="200" width="220" height="30" as="geometry"/>
        </mxCell>
        <mxCell id="B375BskBMubbX5btha5O-6" value="" style="verticalLabelPosition=bottom;shadow=0;dashed=0;align=center;html=1;verticalAlign=top;strokeWidth=1;shape=mxgraph.mockup.markup.line;strokeColor=#999999;rounded=0;labelBackgroundColor=none;fillColor=#ffffff;fontFamily=Verdana;fontSize=12;fontColor=#000000;" vertex="1" parent="B375BskBMubbX5btha5O-2">
          <mxGeometry y="150" width="1050" height="20" as="geometry"/>
        </mxCell>
        <mxCell id="B375BskBMubbX5btha5O-7" value="" style="verticalLabelPosition=bottom;shadow=0;dashed=0;align=center;html=1;verticalAlign=top;strokeWidth=1;shape=mxgraph.mockup.markup.line;strokeColor=#999999;rounded=0;labelBackgroundColor=none;fillColor=#ffffff;fontFamily=Verdana;fontSize=12;fontColor=#000000;" vertex="1" parent="B375BskBMubbX5btha5O-2">
          <mxGeometry y="100" width="1050" height="20" as="geometry"/>
        </mxCell>
        <mxCell id="B375BskBMubbX5btha5O-8" value="LOGO" style="text;html=1;points=[];align=center;verticalAlign=middle;spacingTop=-4;fontSize=30;fontFamily=Verdana;fontColor=#000000;" vertex="1" parent="B375BskBMubbX5btha5O-2">
          <mxGeometry y="110" width="110" height="50" as="geometry"/>
        </mxCell>
        <mxCell id="B375BskBMubbX5btha5O-9" value="MENU2" style="text;html=1;points=[];align=center;verticalAlign=middle;spacingTop=-4;fontSize=18;fontFamily=Verdana;fontColor=#000000;" vertex="1" parent="B375BskBMubbX5btha5O-2">
          <mxGeometry x="220" y="110" width="110" height="50" as="geometry"/>
        </mxCell>
        <mxCell id="B375BskBMubbX5btha5O-10" value="MENU1" style="text;html=1;points=[];align=center;verticalAlign=middle;spacingTop=-4;fontSize=18;fontFamily=Verdana;fontColor=#000000;" vertex="1" parent="B375BskBMubbX5btha5O-2">
          <mxGeometry x="110" y="110" width="110" height="50" as="geometry"/>
        </mxCell>
        <mxCell id="B375BskBMubbX5btha5O-11" value="" style="pointerEvents=1;shadow=0;dashed=0;html=1;strokeColor=none;fillColor=#505050;labelPosition=center;verticalLabelPosition=bottom;verticalAlign=top;outlineConnect=0;align=center;shape=mxgraph.office.users.user;" vertex="1" parent="B375BskBMubbX5btha5O-2">
          <mxGeometry x="991.5" y="117" width="30" height="33" as="geometry"/>
        </mxCell>
        <mxCell id="B375BskBMubbX5btha5O-14" value="&lt;table border=&quot;1&quot; width=&quot;100%&quot; height=&quot;100%&quot; style=&quot;width:100%;height:100%;border-collapse:collapse;&quot;&gt;&lt;tr&gt;&lt;td align=&quot;center&quot;&gt;Value 1&lt;/td&gt;&lt;td align=&quot;center&quot;&gt;Value 2&lt;/td&gt;&lt;td align=&quot;center&quot;&gt;Value 3&lt;/td&gt;&lt;/tr&gt;&lt;tr&gt;&lt;td align=&quot;center&quot;&gt;Value 4&lt;/td&gt;&lt;td align=&quot;center&quot;&gt;Value 5&lt;/td&gt;&lt;td align=&quot;center&quot;&gt;Value 6&lt;/td&gt;&lt;/tr&gt;&lt;tr&gt;&lt;td align=&quot;center&quot;&gt;Value 7&lt;/td&gt;&lt;td align=&quot;center&quot;&gt;Value 8&lt;/td&gt;&lt;td align=&quot;center&quot;&gt;Value 9&lt;/td&gt;&lt;/tr&gt;&lt;/table&gt;" style="text;html=1;strokeColor=#999999;fillColor=#ffffff;overflow=fill;rounded=0;shadow=0;dashed=0;fontFamily=Verdana;align=center;strokeWidth=1;labelBackgroundColor=none;textOpacity=20;" vertex="1" parent="B375BskBMubbX5btha5O-2">
          <mxGeometry x="244" y="300" width="180" height="140" as="geometry"/>
        </mxCell>
        <mxCell id="B375BskBMubbX5btha5O-15" value="" style="rounded=0;whiteSpace=wrap;html=1;shadow=0;dashed=0;fontFamily=Verdana;verticalAlign=top;strokeColor=#333333;strokeWidth=2;gradientColor=none;labelBackgroundColor=none;" vertex="1" parent="B375BskBMubbX5btha5O-2">
          <mxGeometry x="273" y="325" width="122" height="90" as="geometry"/>
        </mxCell>
        <mxCell id="B375BskBMubbX5btha5O-16" value="&lt;table border=&quot;1&quot; width=&quot;100%&quot; height=&quot;100%&quot; style=&quot;width:100%;height:100%;border-collapse:collapse;&quot;&gt;&lt;tbody&gt;&lt;tr&gt;&lt;td align=&quot;center&quot;&gt;Value 1&lt;/td&gt;&lt;td align=&quot;center&quot;&gt;Value 2&lt;/td&gt;&lt;td align=&quot;center&quot;&gt;Value 3&lt;/td&gt;&lt;/tr&gt;&lt;tr&gt;&lt;td align=&quot;center&quot;&gt;Value 4&lt;/td&gt;&lt;td align=&quot;center&quot;&gt;Value 5&lt;/td&gt;&lt;td align=&quot;center&quot;&gt;Value 6&lt;/td&gt;&lt;/tr&gt;&lt;tr&gt;&lt;td align=&quot;center&quot;&gt;Value 7&lt;/td&gt;&lt;td align=&quot;center&quot;&gt;Value 8&lt;/td&gt;&lt;td align=&quot;center&quot;&gt;Value 9&lt;/td&gt;&lt;/tr&gt;&lt;/tbody&gt;&lt;/table&gt;" style="text;html=1;strokeColor=#999999;fillColor=#ffffff;overflow=fill;rounded=0;shadow=0;dashed=0;fontFamily=Verdana;align=center;strokeWidth=1;labelBackgroundColor=none;textOpacity=20;fontStyle=1" vertex="1" parent="B375BskBMubbX5btha5O-2">
          <mxGeometry x="444" y="300" width="180" height="140" as="geometry"/>
        </mxCell>
        <mxCell id="B375BskBMubbX5btha5O-17" value="" style="rounded=0;whiteSpace=wrap;html=1;shadow=0;dashed=0;fontFamily=Verdana;verticalAlign=top;strokeColor=#333333;strokeWidth=2;gradientColor=none;labelBackgroundColor=none;fontStyle=1" vertex="1" parent="B375BskBMubbX5btha5O-2">
          <mxGeometry x="473" y="325" width="122" height="90" as="geometry"/>
        </mxCell>
        <mxCell id="B375BskBMubbX5btha5O-18" value="&lt;table border=&quot;1&quot; width=&quot;100%&quot; height=&quot;100%&quot; style=&quot;width:100%;height:100%;border-collapse:collapse;&quot;&gt;&lt;tbody&gt;&lt;tr&gt;&lt;td align=&quot;center&quot;&gt;Value 1&lt;/td&gt;&lt;td align=&quot;center&quot;&gt;Value 2&lt;/td&gt;&lt;td align=&quot;center&quot;&gt;Value 3&lt;/td&gt;&lt;/tr&gt;&lt;tr&gt;&lt;td align=&quot;center&quot;&gt;Value 4&lt;/td&gt;&lt;td align=&quot;center&quot;&gt;Value 5&lt;/td&gt;&lt;td align=&quot;center&quot;&gt;Value 6&lt;/td&gt;&lt;/tr&gt;&lt;tr&gt;&lt;td align=&quot;center&quot;&gt;Value 7&lt;/td&gt;&lt;td align=&quot;center&quot;&gt;Value 8&lt;/td&gt;&lt;td align=&quot;center&quot;&gt;Value 9&lt;/td&gt;&lt;/tr&gt;&lt;/tbody&gt;&lt;/table&gt;" style="text;html=1;strokeColor=#999999;fillColor=#ffffff;overflow=fill;rounded=0;shadow=0;dashed=0;fontFamily=Verdana;align=center;strokeWidth=1;labelBackgroundColor=none;textOpacity=20;fontStyle=1" vertex="1" parent="B375BskBMubbX5btha5O-2">
          <mxGeometry x="644" y="300" width="180" height="140" as="geometry"/>
        </mxCell>
        <mxCell id="B375BskBMubbX5btha5O-19" value="" style="rounded=0;whiteSpace=wrap;html=1;shadow=0;dashed=0;fontFamily=Verdana;verticalAlign=top;strokeColor=#333333;strokeWidth=2;gradientColor=none;labelBackgroundColor=none;fontStyle=1" vertex="1" parent="B375BskBMubbX5btha5O-2">
          <mxGeometry x="673" y="325" width="122" height="90" as="geometry"/>
        </mxCell>
        <mxCell id="B375BskBMubbX5btha5O-20" value="&lt;table border=&quot;1&quot; width=&quot;100%&quot; height=&quot;100%&quot; style=&quot;width:100%;height:100%;border-collapse:collapse;&quot;&gt;&lt;tbody&gt;&lt;tr&gt;&lt;td align=&quot;center&quot;&gt;Value 1&lt;/td&gt;&lt;td align=&quot;center&quot;&gt;Value 2&lt;/td&gt;&lt;td align=&quot;center&quot;&gt;Value 3&lt;/td&gt;&lt;/tr&gt;&lt;tr&gt;&lt;td align=&quot;center&quot;&gt;Value 4&lt;/td&gt;&lt;td align=&quot;center&quot;&gt;Value 5&lt;/td&gt;&lt;td align=&quot;center&quot;&gt;Value 6&lt;/td&gt;&lt;/tr&gt;&lt;tr&gt;&lt;td align=&quot;center&quot;&gt;Value 7&lt;/td&gt;&lt;td align=&quot;center&quot;&gt;Value 8&lt;/td&gt;&lt;td align=&quot;center&quot;&gt;Value 9&lt;/td&gt;&lt;/tr&gt;&lt;/tbody&gt;&lt;/table&gt;" style="text;html=1;strokeColor=#999999;fillColor=#ffffff;overflow=fill;rounded=0;shadow=0;dashed=0;fontFamily=Verdana;align=center;strokeWidth=1;labelBackgroundColor=none;textOpacity=20;fontStyle=1" vertex="1" parent="B375BskBMubbX5btha5O-2">
          <mxGeometry x="850" y="300" width="180" height="140" as="geometry"/>
        </mxCell>
        <mxCell id="B375BskBMubbX5btha5O-21" value="" style="rounded=0;whiteSpace=wrap;html=1;shadow=0;dashed=0;fontFamily=Verdana;verticalAlign=top;strokeColor=#333333;strokeWidth=2;gradientColor=none;labelBackgroundColor=none;fontStyle=1" vertex="1" parent="B375BskBMubbX5btha5O-2">
          <mxGeometry x="879" y="325" width="122" height="90" as="geometry"/>
        </mxCell>
        <mxCell id="B375BskBMubbX5btha5O-22" value="&lt;table border=&quot;1&quot; width=&quot;100%&quot; height=&quot;100%&quot; style=&quot;width:100%;height:100%;border-collapse:collapse;&quot;&gt;&lt;tbody&gt;&lt;tr&gt;&lt;td align=&quot;center&quot;&gt;Value 1&lt;/td&gt;&lt;td align=&quot;center&quot;&gt;Value 2&lt;/td&gt;&lt;td align=&quot;center&quot;&gt;Value 3&lt;/td&gt;&lt;/tr&gt;&lt;tr&gt;&lt;td align=&quot;center&quot;&gt;Value 4&lt;/td&gt;&lt;td align=&quot;center&quot;&gt;Value 5&lt;/td&gt;&lt;td align=&quot;center&quot;&gt;Value 6&lt;/td&gt;&lt;/tr&gt;&lt;tr&gt;&lt;td align=&quot;center&quot;&gt;Value 7&lt;/td&gt;&lt;td align=&quot;center&quot;&gt;Value 8&lt;/td&gt;&lt;td align=&quot;center&quot;&gt;Value 9&lt;/td&gt;&lt;/tr&gt;&lt;/tbody&gt;&lt;/table&gt;" style="text;html=1;strokeColor=#999999;fillColor=#ffffff;overflow=fill;rounded=0;shadow=0;dashed=0;fontFamily=Verdana;align=center;strokeWidth=1;labelBackgroundColor=none;textOpacity=20;fontStyle=1" vertex="1" parent="B375BskBMubbX5btha5O-2">
          <mxGeometry x="39" y="460" width="180" height="140" as="geometry"/>
        </mxCell>
        <mxCell id="B375BskBMubbX5btha5O-23" value="" style="rounded=0;whiteSpace=wrap;html=1;shadow=0;dashed=0;fontFamily=Verdana;verticalAlign=top;strokeColor=#333333;strokeWidth=2;gradientColor=none;labelBackgroundColor=none;fontStyle=1" vertex="1" parent="B375BskBMubbX5btha5O-2">
          <mxGeometry x="68" y="485" width="122" height="90" as="geometry"/>
        </mxCell>
        <mxCell id="B375BskBMubbX5btha5O-24" value="&lt;table border=&quot;1&quot; width=&quot;100%&quot; height=&quot;100%&quot; style=&quot;width:100%;height:100%;border-collapse:collapse;&quot;&gt;&lt;tbody&gt;&lt;tr&gt;&lt;td align=&quot;center&quot;&gt;Value 1&lt;/td&gt;&lt;td align=&quot;center&quot;&gt;Value 2&lt;/td&gt;&lt;td align=&quot;center&quot;&gt;Value 3&lt;/td&gt;&lt;/tr&gt;&lt;tr&gt;&lt;td align=&quot;center&quot;&gt;Value 4&lt;/td&gt;&lt;td align=&quot;center&quot;&gt;Value 5&lt;/td&gt;&lt;td align=&quot;center&quot;&gt;Value 6&lt;/td&gt;&lt;/tr&gt;&lt;tr&gt;&lt;td align=&quot;center&quot;&gt;Value 7&lt;/td&gt;&lt;td align=&quot;center&quot;&gt;Value 8&lt;/td&gt;&lt;td align=&quot;center&quot;&gt;Value 9&lt;/td&gt;&lt;/tr&gt;&lt;/tbody&gt;&lt;/table&gt;" style="text;html=1;strokeColor=#999999;fillColor=#ffffff;overflow=fill;rounded=0;shadow=0;dashed=0;fontFamily=Verdana;align=center;strokeWidth=1;labelBackgroundColor=none;textOpacity=20;fontStyle=1" vertex="1" parent="B375BskBMubbX5btha5O-2">
          <mxGeometry x="243" y="460" width="180" height="140" as="geometry"/>
        </mxCell>
        <mxCell id="B375BskBMubbX5btha5O-25" value="" style="rounded=0;whiteSpace=wrap;html=1;shadow=0;dashed=0;fontFamily=Verdana;verticalAlign=top;strokeColor=#333333;strokeWidth=2;gradientColor=none;labelBackgroundColor=none;fontStyle=1" vertex="1" parent="B375BskBMubbX5btha5O-2">
          <mxGeometry x="272" y="485" width="122" height="90" as="geometry"/>
        </mxCell>
        <mxCell id="B375BskBMubbX5btha5O-26" value="&lt;table border=&quot;1&quot; width=&quot;100%&quot; height=&quot;100%&quot; style=&quot;width:100%;height:100%;border-collapse:collapse;&quot;&gt;&lt;tbody&gt;&lt;tr&gt;&lt;td align=&quot;center&quot;&gt;Value 1&lt;/td&gt;&lt;td align=&quot;center&quot;&gt;Value 2&lt;/td&gt;&lt;td align=&quot;center&quot;&gt;Value 3&lt;/td&gt;&lt;/tr&gt;&lt;tr&gt;&lt;td align=&quot;center&quot;&gt;Value 4&lt;/td&gt;&lt;td align=&quot;center&quot;&gt;Value 5&lt;/td&gt;&lt;td align=&quot;center&quot;&gt;Value 6&lt;/td&gt;&lt;/tr&gt;&lt;tr&gt;&lt;td align=&quot;center&quot;&gt;Value 7&lt;/td&gt;&lt;td align=&quot;center&quot;&gt;Value 8&lt;/td&gt;&lt;td align=&quot;center&quot;&gt;Value 9&lt;/td&gt;&lt;/tr&gt;&lt;/tbody&gt;&lt;/table&gt;" style="text;html=1;strokeColor=#999999;fillColor=#ffffff;overflow=fill;rounded=0;shadow=0;dashed=0;fontFamily=Verdana;align=center;strokeWidth=1;labelBackgroundColor=none;textOpacity=20;fontStyle=1" vertex="1" parent="B375BskBMubbX5btha5O-2">
          <mxGeometry x="443" y="460" width="180" height="140" as="geometry"/>
        </mxCell>
        <mxCell id="B375BskBMubbX5btha5O-27" value="" style="rounded=0;whiteSpace=wrap;html=1;shadow=0;dashed=0;fontFamily=Verdana;verticalAlign=top;strokeColor=#333333;strokeWidth=2;gradientColor=none;labelBackgroundColor=none;fontStyle=1" vertex="1" parent="B375BskBMubbX5btha5O-2">
          <mxGeometry x="472" y="485" width="122" height="90" as="geometry"/>
        </mxCell>
        <mxCell id="B375BskBMubbX5btha5O-28" value="&lt;table border=&quot;1&quot; width=&quot;100%&quot; height=&quot;100%&quot; style=&quot;width:100%;height:100%;border-collapse:collapse;&quot;&gt;&lt;tbody&gt;&lt;tr&gt;&lt;td align=&quot;center&quot;&gt;Value 1&lt;/td&gt;&lt;td align=&quot;center&quot;&gt;Value 2&lt;/td&gt;&lt;td align=&quot;center&quot;&gt;Value 3&lt;/td&gt;&lt;/tr&gt;&lt;tr&gt;&lt;td align=&quot;center&quot;&gt;Value 4&lt;/td&gt;&lt;td align=&quot;center&quot;&gt;Value 5&lt;/td&gt;&lt;td align=&quot;center&quot;&gt;Value 6&lt;/td&gt;&lt;/tr&gt;&lt;tr&gt;&lt;td align=&quot;center&quot;&gt;Value 7&lt;/td&gt;&lt;td align=&quot;center&quot;&gt;Value 8&lt;/td&gt;&lt;td align=&quot;center&quot;&gt;Value 9&lt;/td&gt;&lt;/tr&gt;&lt;/tbody&gt;&lt;/table&gt;" style="text;html=1;strokeColor=#999999;fillColor=#ffffff;overflow=fill;rounded=0;shadow=0;dashed=0;fontFamily=Verdana;align=center;strokeWidth=1;labelBackgroundColor=none;textOpacity=20;fontStyle=1" vertex="1" parent="B375BskBMubbX5btha5O-2">
          <mxGeometry x="643" y="460" width="180" height="140" as="geometry"/>
        </mxCell>
        <mxCell id="B375BskBMubbX5btha5O-29" value="" style="rounded=0;whiteSpace=wrap;html=1;shadow=0;dashed=0;fontFamily=Verdana;verticalAlign=top;strokeColor=#333333;strokeWidth=2;gradientColor=none;labelBackgroundColor=none;fontStyle=1" vertex="1" parent="B375BskBMubbX5btha5O-2">
          <mxGeometry x="672" y="485" width="122" height="90" as="geometry"/>
        </mxCell>
        <mxCell id="B375BskBMubbX5btha5O-30" value="&lt;table border=&quot;1&quot; width=&quot;100%&quot; height=&quot;100%&quot; style=&quot;width:100%;height:100%;border-collapse:collapse;&quot;&gt;&lt;tbody&gt;&lt;tr&gt;&lt;td align=&quot;center&quot;&gt;Value 1&lt;/td&gt;&lt;td align=&quot;center&quot;&gt;Value 2&lt;/td&gt;&lt;td align=&quot;center&quot;&gt;Value 3&lt;/td&gt;&lt;/tr&gt;&lt;tr&gt;&lt;td align=&quot;center&quot;&gt;Value 4&lt;/td&gt;&lt;td align=&quot;center&quot;&gt;Value 5&lt;/td&gt;&lt;td align=&quot;center&quot;&gt;Value 6&lt;/td&gt;&lt;/tr&gt;&lt;tr&gt;&lt;td align=&quot;center&quot;&gt;Value 7&lt;/td&gt;&lt;td align=&quot;center&quot;&gt;Value 8&lt;/td&gt;&lt;td align=&quot;center&quot;&gt;Value 9&lt;/td&gt;&lt;/tr&gt;&lt;/tbody&gt;&lt;/table&gt;" style="text;html=1;strokeColor=#999999;fillColor=#ffffff;overflow=fill;rounded=0;shadow=0;dashed=0;fontFamily=Verdana;align=center;strokeWidth=1;labelBackgroundColor=none;textOpacity=20;fontStyle=1" vertex="1" parent="B375BskBMubbX5btha5O-2">
          <mxGeometry x="849" y="460" width="180" height="140" as="geometry"/>
        </mxCell>
        <mxCell id="B375BskBMubbX5btha5O-31" value="" style="rounded=0;whiteSpace=wrap;html=1;shadow=0;dashed=0;fontFamily=Verdana;verticalAlign=top;strokeColor=#333333;strokeWidth=2;gradientColor=none;labelBackgroundColor=none;fontStyle=1" vertex="1" parent="B375BskBMubbX5btha5O-2">
          <mxGeometry x="878" y="485" width="122" height="90" as="geometry"/>
        </mxCell>
        <mxCell id="B375BskBMubbX5btha5O-32" value="&lt;table border=&quot;1&quot; width=&quot;100%&quot; height=&quot;100%&quot; style=&quot;width:100%;height:100%;border-collapse:collapse;&quot;&gt;&lt;tbody&gt;&lt;tr&gt;&lt;td align=&quot;center&quot;&gt;Value 1&lt;/td&gt;&lt;td align=&quot;center&quot;&gt;Value 2&lt;/td&gt;&lt;td align=&quot;center&quot;&gt;Value 3&lt;/td&gt;&lt;/tr&gt;&lt;tr&gt;&lt;td align=&quot;center&quot;&gt;Value 4&lt;/td&gt;&lt;td align=&quot;center&quot;&gt;Value 5&lt;/td&gt;&lt;td align=&quot;center&quot;&gt;Value 6&lt;/td&gt;&lt;/tr&gt;&lt;tr&gt;&lt;td align=&quot;center&quot;&gt;Value 7&lt;/td&gt;&lt;td align=&quot;center&quot;&gt;Value 8&lt;/td&gt;&lt;td align=&quot;center&quot;&gt;Value 9&lt;/td&gt;&lt;/tr&gt;&lt;/tbody&gt;&lt;/table&gt;" style="text;html=1;strokeColor=#999999;fillColor=#ffffff;overflow=fill;rounded=0;shadow=0;dashed=0;fontFamily=Verdana;align=center;strokeWidth=1;labelBackgroundColor=none;textOpacity=20;fontStyle=1" vertex="1" parent="B375BskBMubbX5btha5O-2">
          <mxGeometry x="40" y="620" width="180" height="140" as="geometry"/>
        </mxCell>
        <mxCell id="B375BskBMubbX5btha5O-33" value="" style="rounded=0;whiteSpace=wrap;html=1;shadow=0;dashed=0;fontFamily=Verdana;verticalAlign=top;strokeColor=#333333;strokeWidth=2;gradientColor=none;labelBackgroundColor=none;fontStyle=1" vertex="1" parent="B375BskBMubbX5btha5O-2">
          <mxGeometry x="69" y="645" width="122" height="90" as="geometry"/>
        </mxCell>
        <mxCell id="B375BskBMubbX5btha5O-34" value="&lt;table border=&quot;1&quot; width=&quot;100%&quot; height=&quot;100%&quot; style=&quot;width:100%;height:100%;border-collapse:collapse;&quot;&gt;&lt;tbody&gt;&lt;tr&gt;&lt;td align=&quot;center&quot;&gt;Value 1&lt;/td&gt;&lt;td align=&quot;center&quot;&gt;Value 2&lt;/td&gt;&lt;td align=&quot;center&quot;&gt;Value 3&lt;/td&gt;&lt;/tr&gt;&lt;tr&gt;&lt;td align=&quot;center&quot;&gt;Value 4&lt;/td&gt;&lt;td align=&quot;center&quot;&gt;Value 5&lt;/td&gt;&lt;td align=&quot;center&quot;&gt;Value 6&lt;/td&gt;&lt;/tr&gt;&lt;tr&gt;&lt;td align=&quot;center&quot;&gt;Value 7&lt;/td&gt;&lt;td align=&quot;center&quot;&gt;Value 8&lt;/td&gt;&lt;td align=&quot;center&quot;&gt;Value 9&lt;/td&gt;&lt;/tr&gt;&lt;/tbody&gt;&lt;/table&gt;" style="text;html=1;strokeColor=#999999;fillColor=#ffffff;overflow=fill;rounded=0;shadow=0;dashed=0;fontFamily=Verdana;align=center;strokeWidth=1;labelBackgroundColor=none;textOpacity=20;fontStyle=1" vertex="1" parent="B375BskBMubbX5btha5O-2">
          <mxGeometry x="240" y="620" width="180" height="140" as="geometry"/>
        </mxCell>
        <mxCell id="B375BskBMubbX5btha5O-35" value="" style="rounded=0;whiteSpace=wrap;html=1;shadow=0;dashed=0;fontFamily=Verdana;verticalAlign=top;strokeColor=#333333;strokeWidth=2;gradientColor=none;labelBackgroundColor=none;fontStyle=1" vertex="1" parent="B375BskBMubbX5btha5O-2">
          <mxGeometry x="269" y="645" width="122" height="90" as="geometry"/>
        </mxCell>
        <mxCell id="B375BskBMubbX5btha5O-36" value="&lt;table border=&quot;1&quot; width=&quot;100%&quot; height=&quot;100%&quot; style=&quot;width:100%;height:100%;border-collapse:collapse;&quot;&gt;&lt;tbody&gt;&lt;tr&gt;&lt;td align=&quot;center&quot;&gt;Value 1&lt;/td&gt;&lt;td align=&quot;center&quot;&gt;Value 2&lt;/td&gt;&lt;td align=&quot;center&quot;&gt;Value 3&lt;/td&gt;&lt;/tr&gt;&lt;tr&gt;&lt;td align=&quot;center&quot;&gt;Value 4&lt;/td&gt;&lt;td align=&quot;center&quot;&gt;Value 5&lt;/td&gt;&lt;td align=&quot;center&quot;&gt;Value 6&lt;/td&gt;&lt;/tr&gt;&lt;tr&gt;&lt;td align=&quot;center&quot;&gt;Value 7&lt;/td&gt;&lt;td align=&quot;center&quot;&gt;Value 8&lt;/td&gt;&lt;td align=&quot;center&quot;&gt;Value 9&lt;/td&gt;&lt;/tr&gt;&lt;/tbody&gt;&lt;/table&gt;" style="text;html=1;strokeColor=#999999;fillColor=#ffffff;overflow=fill;rounded=0;shadow=0;dashed=0;fontFamily=Verdana;align=center;strokeWidth=1;labelBackgroundColor=none;textOpacity=20;fontStyle=1" vertex="1" parent="B375BskBMubbX5btha5O-2">
          <mxGeometry x="444" y="620" width="180" height="140" as="geometry"/>
        </mxCell>
        <mxCell id="B375BskBMubbX5btha5O-37" value="" style="rounded=0;whiteSpace=wrap;html=1;shadow=0;dashed=0;fontFamily=Verdana;verticalAlign=top;strokeColor=#333333;strokeWidth=2;gradientColor=none;labelBackgroundColor=none;fontStyle=1" vertex="1" parent="B375BskBMubbX5btha5O-2">
          <mxGeometry x="473" y="645" width="122" height="90" as="geometry"/>
        </mxCell>
        <mxCell id="B375BskBMubbX5btha5O-38" value="&lt;table border=&quot;1&quot; width=&quot;100%&quot; height=&quot;100%&quot; style=&quot;width:100%;height:100%;border-collapse:collapse;&quot;&gt;&lt;tbody&gt;&lt;tr&gt;&lt;td align=&quot;center&quot;&gt;Value 1&lt;/td&gt;&lt;td align=&quot;center&quot;&gt;Value 2&lt;/td&gt;&lt;td align=&quot;center&quot;&gt;Value 3&lt;/td&gt;&lt;/tr&gt;&lt;tr&gt;&lt;td align=&quot;center&quot;&gt;Value 4&lt;/td&gt;&lt;td align=&quot;center&quot;&gt;Value 5&lt;/td&gt;&lt;td align=&quot;center&quot;&gt;Value 6&lt;/td&gt;&lt;/tr&gt;&lt;tr&gt;&lt;td align=&quot;center&quot;&gt;Value 7&lt;/td&gt;&lt;td align=&quot;center&quot;&gt;Value 8&lt;/td&gt;&lt;td align=&quot;center&quot;&gt;Value 9&lt;/td&gt;&lt;/tr&gt;&lt;/tbody&gt;&lt;/table&gt;" style="text;html=1;strokeColor=#999999;fillColor=#ffffff;overflow=fill;rounded=0;shadow=0;dashed=0;fontFamily=Verdana;align=center;strokeWidth=1;labelBackgroundColor=none;textOpacity=20;fontStyle=1" vertex="1" parent="B375BskBMubbX5btha5O-2">
          <mxGeometry x="644" y="620" width="180" height="140" as="geometry"/>
        </mxCell>
        <mxCell id="B375BskBMubbX5btha5O-39" value="" style="rounded=0;whiteSpace=wrap;html=1;shadow=0;dashed=0;fontFamily=Verdana;verticalAlign=top;strokeColor=#333333;strokeWidth=2;gradientColor=none;labelBackgroundColor=none;fontStyle=1" vertex="1" parent="B375BskBMubbX5btha5O-2">
          <mxGeometry x="673" y="645" width="122" height="90" as="geometry"/>
        </mxCell>
        <mxCell id="B375BskBMubbX5btha5O-40" value="&lt;table border=&quot;1&quot; width=&quot;100%&quot; height=&quot;100%&quot; style=&quot;width:100%;height:100%;border-collapse:collapse;&quot;&gt;&lt;tbody&gt;&lt;tr&gt;&lt;td align=&quot;center&quot;&gt;Value 1&lt;/td&gt;&lt;td align=&quot;center&quot;&gt;Value 2&lt;/td&gt;&lt;td align=&quot;center&quot;&gt;Value 3&lt;/td&gt;&lt;/tr&gt;&lt;tr&gt;&lt;td align=&quot;center&quot;&gt;Value 4&lt;/td&gt;&lt;td align=&quot;center&quot;&gt;Value 5&lt;/td&gt;&lt;td align=&quot;center&quot;&gt;Value 6&lt;/td&gt;&lt;/tr&gt;&lt;tr&gt;&lt;td align=&quot;center&quot;&gt;Value 7&lt;/td&gt;&lt;td align=&quot;center&quot;&gt;Value 8&lt;/td&gt;&lt;td align=&quot;center&quot;&gt;Value 9&lt;/td&gt;&lt;/tr&gt;&lt;/tbody&gt;&lt;/table&gt;" style="text;html=1;strokeColor=#999999;fillColor=#ffffff;overflow=fill;rounded=0;shadow=0;dashed=0;fontFamily=Verdana;align=center;strokeWidth=1;labelBackgroundColor=none;textOpacity=20;fontStyle=1" vertex="1" parent="B375BskBMubbX5btha5O-2">
          <mxGeometry x="850" y="620" width="180" height="140" as="geometry"/>
        </mxCell>
        <mxCell id="B375BskBMubbX5btha5O-41" value="" style="rounded=0;whiteSpace=wrap;html=1;shadow=0;dashed=0;fontFamily=Verdana;verticalAlign=top;strokeColor=#333333;strokeWidth=2;gradientColor=none;labelBackgroundColor=none;fontStyle=1" vertex="1" parent="B375BskBMubbX5btha5O-2">
          <mxGeometry x="879" y="645" width="122" height="90" as="geometry"/>
        </mxCell>
        <mxCell id="B375BskBMubbX5btha5O-12" value="&lt;table border=&quot;1&quot; width=&quot;100%&quot; height=&quot;100%&quot; style=&quot;width:100%;height:100%;border-collapse:collapse;&quot;&gt;&lt;tr&gt;&lt;td align=&quot;center&quot;&gt;Value 1&lt;/td&gt;&lt;td align=&quot;center&quot;&gt;Value 2&lt;/td&gt;&lt;td align=&quot;center&quot;&gt;Value 3&lt;/td&gt;&lt;/tr&gt;&lt;tr&gt;&lt;td align=&quot;center&quot;&gt;Value 4&lt;/td&gt;&lt;td align=&quot;center&quot;&gt;Value 5&lt;/td&gt;&lt;td align=&quot;center&quot;&gt;Value 6&lt;/td&gt;&lt;/tr&gt;&lt;tr&gt;&lt;td align=&quot;center&quot;&gt;Value 7&lt;/td&gt;&lt;td align=&quot;center&quot;&gt;Value 8&lt;/td&gt;&lt;td align=&quot;center&quot;&gt;Value 9&lt;/td&gt;&lt;/tr&gt;&lt;/table&gt;" style="text;html=1;strokeColor=#999999;fillColor=#ffffff;overflow=fill;rounded=0;shadow=0;dashed=0;fontFamily=Verdana;align=center;strokeWidth=1;labelBackgroundColor=none;" vertex="1" parent="B375BskBMubbX5btha5O-2">
          <mxGeometry x="10" y="235" width="451" height="350" as="geometry"/>
        </mxCell>
      </root>
    </mxGraphModel>
  </diagram>
  <diagram name="Main-1_Edit" id="_x_ASEoxhlh2zWQpunP_">
    <mxGraphModel dx="1408" dy="748" grid="1" gridSize="10" guides="1" tooltips="1" connect="1" arrows="1" fold="1" page="1" pageScale="1" pageWidth="1100" pageHeight="850" background="#ffffff" math="0" shadow="0">
      <root>
        <mxCell id="9tUGU_XWN2PTMox6wNer-0"/>
        <mxCell id="9tUGU_XWN2PTMox6wNer-1" parent="9tUGU_XWN2PTMox6wNer-0"/>
        <mxCell id="9tUGU_XWN2PTMox6wNer-2" value="" style="strokeWidth=1;shadow=0;dashed=0;align=center;html=1;shape=mxgraph.mockup.containers.browserWindow;rSize=0;strokeColor=#666666;mainText=,;recursiveResize=0;rounded=0;labelBackgroundColor=none;fontFamily=Verdana;fontSize=12" vertex="1" parent="9tUGU_XWN2PTMox6wNer-1">
          <mxGeometry x="30" y="20" width="1050" height="865" as="geometry"/>
        </mxCell>
        <mxCell id="9tUGU_XWN2PTMox6wNer-3" value="Page 1" style="strokeWidth=1;shadow=0;dashed=0;align=center;html=1;shape=mxgraph.mockup.containers.anchor;fontSize=17;fontColor=#666666;align=left;" vertex="1" parent="9tUGU_XWN2PTMox6wNer-2">
          <mxGeometry x="60" y="12" width="110" height="26" as="geometry"/>
        </mxCell>
        <mxCell id="9tUGU_XWN2PTMox6wNer-4" value="https://www.default.com" style="strokeWidth=1;shadow=0;dashed=0;align=center;html=1;shape=mxgraph.mockup.containers.anchor;rSize=0;fontSize=17;fontColor=#666666;align=left;" vertex="1" parent="9tUGU_XWN2PTMox6wNer-2">
          <mxGeometry x="130" y="60" width="250" height="26" as="geometry"/>
        </mxCell>
        <mxCell id="9tUGU_XWN2PTMox6wNer-5" value="Search" style="strokeWidth=1;shadow=0;dashed=0;align=center;html=1;shape=mxgraph.mockup.forms.searchBox;strokeColor=#999999;mainText=;strokeColor2=#008cff;fontColor=#666666;fontSize=17;align=left;spacingLeft=3;rounded=0;labelBackgroundColor=none;" vertex="1" parent="9tUGU_XWN2PTMox6wNer-2">
          <mxGeometry x="410" y="200" width="220" height="30" as="geometry"/>
        </mxCell>
        <mxCell id="9tUGU_XWN2PTMox6wNer-6" value="" style="verticalLabelPosition=bottom;shadow=0;dashed=0;align=center;html=1;verticalAlign=top;strokeWidth=1;shape=mxgraph.mockup.markup.line;strokeColor=#999999;rounded=0;labelBackgroundColor=none;fillColor=#ffffff;fontFamily=Verdana;fontSize=12;fontColor=#000000;" vertex="1" parent="9tUGU_XWN2PTMox6wNer-2">
          <mxGeometry y="150" width="1050" height="20" as="geometry"/>
        </mxCell>
        <mxCell id="9tUGU_XWN2PTMox6wNer-7" value="" style="verticalLabelPosition=bottom;shadow=0;dashed=0;align=center;html=1;verticalAlign=top;strokeWidth=1;shape=mxgraph.mockup.markup.line;strokeColor=#999999;rounded=0;labelBackgroundColor=none;fillColor=#ffffff;fontFamily=Verdana;fontSize=12;fontColor=#000000;" vertex="1" parent="9tUGU_XWN2PTMox6wNer-2">
          <mxGeometry y="100" width="1050" height="20" as="geometry"/>
        </mxCell>
        <mxCell id="9tUGU_XWN2PTMox6wNer-8" value="LOGO" style="text;html=1;points=[];align=center;verticalAlign=middle;spacingTop=-4;fontSize=30;fontFamily=Verdana;fontColor=#000000;" vertex="1" parent="9tUGU_XWN2PTMox6wNer-2">
          <mxGeometry y="110" width="110" height="50" as="geometry"/>
        </mxCell>
        <mxCell id="9tUGU_XWN2PTMox6wNer-9" value="MENU2" style="text;html=1;points=[];align=center;verticalAlign=middle;spacingTop=-4;fontSize=18;fontFamily=Verdana;fontColor=#000000;" vertex="1" parent="9tUGU_XWN2PTMox6wNer-2">
          <mxGeometry x="220" y="110" width="110" height="50" as="geometry"/>
        </mxCell>
        <mxCell id="9tUGU_XWN2PTMox6wNer-10" value="MENU1" style="text;html=1;points=[];align=center;verticalAlign=middle;spacingTop=-4;fontSize=18;fontFamily=Verdana;fontColor=#000000;" vertex="1" parent="9tUGU_XWN2PTMox6wNer-2">
          <mxGeometry x="110" y="110" width="110" height="50" as="geometry"/>
        </mxCell>
        <mxCell id="9tUGU_XWN2PTMox6wNer-11" value="" style="pointerEvents=1;shadow=0;dashed=0;html=1;strokeColor=none;fillColor=#505050;labelPosition=center;verticalLabelPosition=bottom;verticalAlign=top;outlineConnect=0;align=center;shape=mxgraph.office.users.user;" vertex="1" parent="9tUGU_XWN2PTMox6wNer-2">
          <mxGeometry x="991.5" y="117" width="30" height="33" as="geometry"/>
        </mxCell>
        <mxCell id="9tUGU_XWN2PTMox6wNer-12" value="&lt;table border=&quot;1&quot; width=&quot;100%&quot; height=&quot;100%&quot; style=&quot;width:100%;height:100%;border-collapse:collapse;&quot;&gt;&lt;tr&gt;&lt;td align=&quot;center&quot;&gt;Value 1&lt;/td&gt;&lt;td align=&quot;center&quot;&gt;Value 2&lt;/td&gt;&lt;td align=&quot;center&quot;&gt;Value 3&lt;/td&gt;&lt;/tr&gt;&lt;tr&gt;&lt;td align=&quot;center&quot;&gt;Value 4&lt;/td&gt;&lt;td align=&quot;center&quot;&gt;Value 5&lt;/td&gt;&lt;td align=&quot;center&quot;&gt;Value 6&lt;/td&gt;&lt;/tr&gt;&lt;tr&gt;&lt;td align=&quot;center&quot;&gt;Value 7&lt;/td&gt;&lt;td align=&quot;center&quot;&gt;Value 8&lt;/td&gt;&lt;td align=&quot;center&quot;&gt;Value 9&lt;/td&gt;&lt;/tr&gt;&lt;/table&gt;" style="text;html=1;strokeColor=#999999;fillColor=#ffffff;overflow=fill;rounded=0;shadow=0;dashed=0;fontFamily=Verdana;align=center;strokeWidth=1;labelBackgroundColor=none;textOpacity=10;opacity=10;" vertex="1" parent="9tUGU_XWN2PTMox6wNer-2">
          <mxGeometry x="244" y="300" width="180" height="140" as="geometry"/>
        </mxCell>
        <mxCell id="9tUGU_XWN2PTMox6wNer-13" value="" style="rounded=0;whiteSpace=wrap;html=1;shadow=0;dashed=0;fontFamily=Verdana;verticalAlign=top;strokeColor=#333333;strokeWidth=2;gradientColor=none;labelBackgroundColor=none;textOpacity=10;opacity=10;" vertex="1" parent="9tUGU_XWN2PTMox6wNer-2">
          <mxGeometry x="273" y="325" width="122" height="90" as="geometry"/>
        </mxCell>
        <mxCell id="9tUGU_XWN2PTMox6wNer-14" value="&lt;table border=&quot;1&quot; width=&quot;100%&quot; height=&quot;100%&quot; style=&quot;width:100%;height:100%;border-collapse:collapse;&quot;&gt;&lt;tbody&gt;&lt;tr&gt;&lt;td align=&quot;center&quot;&gt;Value 1&lt;/td&gt;&lt;td align=&quot;center&quot;&gt;Value 2&lt;/td&gt;&lt;td align=&quot;center&quot;&gt;Value 3&lt;/td&gt;&lt;/tr&gt;&lt;tr&gt;&lt;td align=&quot;center&quot;&gt;Value 4&lt;/td&gt;&lt;td align=&quot;center&quot;&gt;Value 5&lt;/td&gt;&lt;td align=&quot;center&quot;&gt;Value 6&lt;/td&gt;&lt;/tr&gt;&lt;tr&gt;&lt;td align=&quot;center&quot;&gt;Value 7&lt;/td&gt;&lt;td align=&quot;center&quot;&gt;Value 8&lt;/td&gt;&lt;td align=&quot;center&quot;&gt;Value 9&lt;/td&gt;&lt;/tr&gt;&lt;/tbody&gt;&lt;/table&gt;" style="text;html=1;strokeColor=#999999;fillColor=#ffffff;overflow=fill;rounded=0;shadow=0;dashed=0;fontFamily=Verdana;align=center;strokeWidth=1;labelBackgroundColor=none;textOpacity=10;fontStyle=1" vertex="1" parent="9tUGU_XWN2PTMox6wNer-2">
          <mxGeometry x="444" y="300" width="180" height="140" as="geometry"/>
        </mxCell>
        <mxCell id="9tUGU_XWN2PTMox6wNer-15" value="" style="rounded=0;whiteSpace=wrap;html=1;shadow=0;dashed=0;fontFamily=Verdana;verticalAlign=top;strokeColor=#333333;strokeWidth=2;gradientColor=none;labelBackgroundColor=none;fontStyle=1;textOpacity=10;opacity=10;" vertex="1" parent="9tUGU_XWN2PTMox6wNer-2">
          <mxGeometry x="473" y="325" width="122" height="90" as="geometry"/>
        </mxCell>
        <mxCell id="9tUGU_XWN2PTMox6wNer-16" value="&lt;table border=&quot;1&quot; width=&quot;100%&quot; height=&quot;100%&quot; style=&quot;width:100%;height:100%;border-collapse:collapse;&quot;&gt;&lt;tbody&gt;&lt;tr&gt;&lt;td align=&quot;center&quot;&gt;Value 1&lt;/td&gt;&lt;td align=&quot;center&quot;&gt;Value 2&lt;/td&gt;&lt;td align=&quot;center&quot;&gt;Value 3&lt;/td&gt;&lt;/tr&gt;&lt;tr&gt;&lt;td align=&quot;center&quot;&gt;Value 4&lt;/td&gt;&lt;td align=&quot;center&quot;&gt;Value 5&lt;/td&gt;&lt;td align=&quot;center&quot;&gt;Value 6&lt;/td&gt;&lt;/tr&gt;&lt;tr&gt;&lt;td align=&quot;center&quot;&gt;Value 7&lt;/td&gt;&lt;td align=&quot;center&quot;&gt;Value 8&lt;/td&gt;&lt;td align=&quot;center&quot;&gt;Value 9&lt;/td&gt;&lt;/tr&gt;&lt;/tbody&gt;&lt;/table&gt;" style="text;html=1;strokeColor=#999999;fillColor=#ffffff;overflow=fill;rounded=0;shadow=0;dashed=0;fontFamily=Verdana;align=center;strokeWidth=1;labelBackgroundColor=none;textOpacity=10;fontStyle=1;opacity=10;" vertex="1" parent="9tUGU_XWN2PTMox6wNer-2">
          <mxGeometry x="644" y="300" width="180" height="140" as="geometry"/>
        </mxCell>
        <mxCell id="9tUGU_XWN2PTMox6wNer-17" value="" style="rounded=0;whiteSpace=wrap;html=1;shadow=0;dashed=0;fontFamily=Verdana;verticalAlign=top;strokeColor=#333333;strokeWidth=2;gradientColor=none;labelBackgroundColor=none;fontStyle=1;textOpacity=10;opacity=10;" vertex="1" parent="9tUGU_XWN2PTMox6wNer-2">
          <mxGeometry x="673" y="325" width="122" height="90" as="geometry"/>
        </mxCell>
        <mxCell id="9tUGU_XWN2PTMox6wNer-18" value="&lt;table border=&quot;1&quot; width=&quot;100%&quot; height=&quot;100%&quot; style=&quot;width:100%;height:100%;border-collapse:collapse;&quot;&gt;&lt;tbody&gt;&lt;tr&gt;&lt;td align=&quot;center&quot;&gt;Value 1&lt;/td&gt;&lt;td align=&quot;center&quot;&gt;Value 2&lt;/td&gt;&lt;td align=&quot;center&quot;&gt;Value 3&lt;/td&gt;&lt;/tr&gt;&lt;tr&gt;&lt;td align=&quot;center&quot;&gt;Value 4&lt;/td&gt;&lt;td align=&quot;center&quot;&gt;Value 5&lt;/td&gt;&lt;td align=&quot;center&quot;&gt;Value 6&lt;/td&gt;&lt;/tr&gt;&lt;tr&gt;&lt;td align=&quot;center&quot;&gt;Value 7&lt;/td&gt;&lt;td align=&quot;center&quot;&gt;Value 8&lt;/td&gt;&lt;td align=&quot;center&quot;&gt;Value 9&lt;/td&gt;&lt;/tr&gt;&lt;/tbody&gt;&lt;/table&gt;" style="text;html=1;strokeColor=#999999;fillColor=#ffffff;overflow=fill;rounded=0;shadow=0;dashed=0;fontFamily=Verdana;align=center;strokeWidth=1;labelBackgroundColor=none;textOpacity=10;fontStyle=1;opacity=10;" vertex="1" parent="9tUGU_XWN2PTMox6wNer-2">
          <mxGeometry x="850" y="300" width="180" height="140" as="geometry"/>
        </mxCell>
        <mxCell id="9tUGU_XWN2PTMox6wNer-19" value="" style="rounded=0;whiteSpace=wrap;html=1;shadow=0;dashed=0;fontFamily=Verdana;verticalAlign=top;strokeColor=#333333;strokeWidth=2;gradientColor=none;labelBackgroundColor=none;fontStyle=1;textOpacity=10;opacity=10;" vertex="1" parent="9tUGU_XWN2PTMox6wNer-2">
          <mxGeometry x="879" y="325" width="122" height="90" as="geometry"/>
        </mxCell>
        <mxCell id="9tUGU_XWN2PTMox6wNer-20" value="&lt;table border=&quot;1&quot; width=&quot;100%&quot; height=&quot;100%&quot; style=&quot;width:100%;height:100%;border-collapse:collapse;&quot;&gt;&lt;tbody&gt;&lt;tr&gt;&lt;td align=&quot;center&quot;&gt;Value 1&lt;/td&gt;&lt;td align=&quot;center&quot;&gt;Value 2&lt;/td&gt;&lt;td align=&quot;center&quot;&gt;Value 3&lt;/td&gt;&lt;/tr&gt;&lt;tr&gt;&lt;td align=&quot;center&quot;&gt;Value 4&lt;/td&gt;&lt;td align=&quot;center&quot;&gt;Value 5&lt;/td&gt;&lt;td align=&quot;center&quot;&gt;Value 6&lt;/td&gt;&lt;/tr&gt;&lt;tr&gt;&lt;td align=&quot;center&quot;&gt;Value 7&lt;/td&gt;&lt;td align=&quot;center&quot;&gt;Value 8&lt;/td&gt;&lt;td align=&quot;center&quot;&gt;Value 9&lt;/td&gt;&lt;/tr&gt;&lt;/tbody&gt;&lt;/table&gt;" style="text;html=1;strokeColor=#999999;fillColor=#ffffff;overflow=fill;rounded=0;shadow=0;dashed=0;fontFamily=Verdana;align=center;strokeWidth=1;labelBackgroundColor=none;textOpacity=10;fontStyle=1;opacity=10;" vertex="1" parent="9tUGU_XWN2PTMox6wNer-2">
          <mxGeometry x="39" y="460" width="180" height="140" as="geometry"/>
        </mxCell>
        <mxCell id="9tUGU_XWN2PTMox6wNer-21" value="" style="rounded=0;whiteSpace=wrap;html=1;shadow=0;dashed=0;fontFamily=Verdana;verticalAlign=top;strokeColor=#333333;strokeWidth=2;gradientColor=none;labelBackgroundColor=none;fontStyle=1;textOpacity=10;opacity=10;" vertex="1" parent="9tUGU_XWN2PTMox6wNer-2">
          <mxGeometry x="68" y="485" width="122" height="90" as="geometry"/>
        </mxCell>
        <mxCell id="9tUGU_XWN2PTMox6wNer-22" value="&lt;table border=&quot;1&quot; width=&quot;100%&quot; height=&quot;100%&quot; style=&quot;width:100%;height:100%;border-collapse:collapse;&quot;&gt;&lt;tbody&gt;&lt;tr&gt;&lt;td align=&quot;center&quot;&gt;Value 1&lt;/td&gt;&lt;td align=&quot;center&quot;&gt;Value 2&lt;/td&gt;&lt;td align=&quot;center&quot;&gt;Value 3&lt;/td&gt;&lt;/tr&gt;&lt;tr&gt;&lt;td align=&quot;center&quot;&gt;Value 4&lt;/td&gt;&lt;td align=&quot;center&quot;&gt;Value 5&lt;/td&gt;&lt;td align=&quot;center&quot;&gt;Value 6&lt;/td&gt;&lt;/tr&gt;&lt;tr&gt;&lt;td align=&quot;center&quot;&gt;Value 7&lt;/td&gt;&lt;td align=&quot;center&quot;&gt;Value 8&lt;/td&gt;&lt;td align=&quot;center&quot;&gt;Value 9&lt;/td&gt;&lt;/tr&gt;&lt;/tbody&gt;&lt;/table&gt;" style="text;html=1;strokeColor=#999999;fillColor=#ffffff;overflow=fill;rounded=0;shadow=0;dashed=0;fontFamily=Verdana;align=center;strokeWidth=1;labelBackgroundColor=none;textOpacity=10;fontStyle=1;opacity=10;" vertex="1" parent="9tUGU_XWN2PTMox6wNer-2">
          <mxGeometry x="243" y="460" width="180" height="140" as="geometry"/>
        </mxCell>
        <mxCell id="9tUGU_XWN2PTMox6wNer-23" value="" style="rounded=0;whiteSpace=wrap;html=1;shadow=0;dashed=0;fontFamily=Verdana;verticalAlign=top;strokeColor=#333333;strokeWidth=2;gradientColor=none;labelBackgroundColor=none;fontStyle=1;textOpacity=10;opacity=10;" vertex="1" parent="9tUGU_XWN2PTMox6wNer-2">
          <mxGeometry x="272" y="485" width="122" height="90" as="geometry"/>
        </mxCell>
        <mxCell id="9tUGU_XWN2PTMox6wNer-24" value="&lt;table border=&quot;1&quot; width=&quot;100%&quot; height=&quot;100%&quot; style=&quot;width:100%;height:100%;border-collapse:collapse;&quot;&gt;&lt;tbody&gt;&lt;tr&gt;&lt;td align=&quot;center&quot;&gt;Value 1&lt;/td&gt;&lt;td align=&quot;center&quot;&gt;Value 2&lt;/td&gt;&lt;td align=&quot;center&quot;&gt;Value 3&lt;/td&gt;&lt;/tr&gt;&lt;tr&gt;&lt;td align=&quot;center&quot;&gt;Value 4&lt;/td&gt;&lt;td align=&quot;center&quot;&gt;Value 5&lt;/td&gt;&lt;td align=&quot;center&quot;&gt;Value 6&lt;/td&gt;&lt;/tr&gt;&lt;tr&gt;&lt;td align=&quot;center&quot;&gt;Value 7&lt;/td&gt;&lt;td align=&quot;center&quot;&gt;Value 8&lt;/td&gt;&lt;td align=&quot;center&quot;&gt;Value 9&lt;/td&gt;&lt;/tr&gt;&lt;/tbody&gt;&lt;/table&gt;" style="text;html=1;strokeColor=#999999;fillColor=#ffffff;overflow=fill;rounded=0;shadow=0;dashed=0;fontFamily=Verdana;align=center;strokeWidth=1;labelBackgroundColor=none;textOpacity=10;fontStyle=1;opacity=10;" vertex="1" parent="9tUGU_XWN2PTMox6wNer-2">
          <mxGeometry x="443" y="460" width="180" height="140" as="geometry"/>
        </mxCell>
        <mxCell id="9tUGU_XWN2PTMox6wNer-25" value="" style="rounded=0;whiteSpace=wrap;html=1;shadow=0;dashed=0;fontFamily=Verdana;verticalAlign=top;strokeColor=#333333;strokeWidth=2;gradientColor=none;labelBackgroundColor=none;fontStyle=1;textOpacity=10;opacity=10;" vertex="1" parent="9tUGU_XWN2PTMox6wNer-2">
          <mxGeometry x="472" y="485" width="122" height="90" as="geometry"/>
        </mxCell>
        <mxCell id="9tUGU_XWN2PTMox6wNer-26" value="&lt;table border=&quot;1&quot; width=&quot;100%&quot; height=&quot;100%&quot; style=&quot;width:100%;height:100%;border-collapse:collapse;&quot;&gt;&lt;tbody&gt;&lt;tr&gt;&lt;td align=&quot;center&quot;&gt;Value 1&lt;/td&gt;&lt;td align=&quot;center&quot;&gt;Value 2&lt;/td&gt;&lt;td align=&quot;center&quot;&gt;Value 3&lt;/td&gt;&lt;/tr&gt;&lt;tr&gt;&lt;td align=&quot;center&quot;&gt;Value 4&lt;/td&gt;&lt;td align=&quot;center&quot;&gt;Value 5&lt;/td&gt;&lt;td align=&quot;center&quot;&gt;Value 6&lt;/td&gt;&lt;/tr&gt;&lt;tr&gt;&lt;td align=&quot;center&quot;&gt;Value 7&lt;/td&gt;&lt;td align=&quot;center&quot;&gt;Value 8&lt;/td&gt;&lt;td align=&quot;center&quot;&gt;Value 9&lt;/td&gt;&lt;/tr&gt;&lt;/tbody&gt;&lt;/table&gt;" style="text;html=1;strokeColor=#999999;fillColor=#ffffff;overflow=fill;rounded=0;shadow=0;dashed=0;fontFamily=Verdana;align=center;strokeWidth=1;labelBackgroundColor=none;textOpacity=10;fontStyle=1;opacity=10;" vertex="1" parent="9tUGU_XWN2PTMox6wNer-2">
          <mxGeometry x="643" y="460" width="180" height="140" as="geometry"/>
        </mxCell>
        <mxCell id="9tUGU_XWN2PTMox6wNer-27" value="" style="rounded=0;whiteSpace=wrap;html=1;shadow=0;dashed=0;fontFamily=Verdana;verticalAlign=top;strokeColor=#333333;strokeWidth=2;gradientColor=none;labelBackgroundColor=none;fontStyle=1;textOpacity=10;opacity=10;" vertex="1" parent="9tUGU_XWN2PTMox6wNer-2">
          <mxGeometry x="672" y="485" width="122" height="90" as="geometry"/>
        </mxCell>
        <mxCell id="9tUGU_XWN2PTMox6wNer-28" value="&lt;table border=&quot;1&quot; width=&quot;100%&quot; height=&quot;100%&quot; style=&quot;width:100%;height:100%;border-collapse:collapse;&quot;&gt;&lt;tbody&gt;&lt;tr&gt;&lt;td align=&quot;center&quot;&gt;Value 1&lt;/td&gt;&lt;td align=&quot;center&quot;&gt;Value 2&lt;/td&gt;&lt;td align=&quot;center&quot;&gt;Value 3&lt;/td&gt;&lt;/tr&gt;&lt;tr&gt;&lt;td align=&quot;center&quot;&gt;Value 4&lt;/td&gt;&lt;td align=&quot;center&quot;&gt;Value 5&lt;/td&gt;&lt;td align=&quot;center&quot;&gt;Value 6&lt;/td&gt;&lt;/tr&gt;&lt;tr&gt;&lt;td align=&quot;center&quot;&gt;Value 7&lt;/td&gt;&lt;td align=&quot;center&quot;&gt;Value 8&lt;/td&gt;&lt;td align=&quot;center&quot;&gt;Value 9&lt;/td&gt;&lt;/tr&gt;&lt;/tbody&gt;&lt;/table&gt;" style="text;html=1;strokeColor=#999999;fillColor=#ffffff;overflow=fill;rounded=0;shadow=0;dashed=0;fontFamily=Verdana;align=center;strokeWidth=1;labelBackgroundColor=none;textOpacity=10;fontStyle=1;opacity=10;" vertex="1" parent="9tUGU_XWN2PTMox6wNer-2">
          <mxGeometry x="849" y="460" width="180" height="140" as="geometry"/>
        </mxCell>
        <mxCell id="9tUGU_XWN2PTMox6wNer-29" value="" style="rounded=0;whiteSpace=wrap;html=1;shadow=0;dashed=0;fontFamily=Verdana;verticalAlign=top;strokeColor=#333333;strokeWidth=2;gradientColor=none;labelBackgroundColor=none;fontStyle=1;textOpacity=10;opacity=10;" vertex="1" parent="9tUGU_XWN2PTMox6wNer-2">
          <mxGeometry x="878" y="485" width="122" height="90" as="geometry"/>
        </mxCell>
        <mxCell id="9tUGU_XWN2PTMox6wNer-30" value="&lt;table border=&quot;1&quot; width=&quot;100%&quot; height=&quot;100%&quot; style=&quot;width:100%;height:100%;border-collapse:collapse;&quot;&gt;&lt;tbody&gt;&lt;tr&gt;&lt;td align=&quot;center&quot;&gt;Value 1&lt;/td&gt;&lt;td align=&quot;center&quot;&gt;Value 2&lt;/td&gt;&lt;td align=&quot;center&quot;&gt;Value 3&lt;/td&gt;&lt;/tr&gt;&lt;tr&gt;&lt;td align=&quot;center&quot;&gt;Value 4&lt;/td&gt;&lt;td align=&quot;center&quot;&gt;Value 5&lt;/td&gt;&lt;td align=&quot;center&quot;&gt;Value 6&lt;/td&gt;&lt;/tr&gt;&lt;tr&gt;&lt;td align=&quot;center&quot;&gt;Value 7&lt;/td&gt;&lt;td align=&quot;center&quot;&gt;Value 8&lt;/td&gt;&lt;td align=&quot;center&quot;&gt;Value 9&lt;/td&gt;&lt;/tr&gt;&lt;/tbody&gt;&lt;/table&gt;" style="text;html=1;strokeColor=#999999;fillColor=#ffffff;overflow=fill;rounded=0;shadow=0;dashed=0;fontFamily=Verdana;align=center;strokeWidth=1;labelBackgroundColor=none;textOpacity=10;fontStyle=1;opacity=10;" vertex="1" parent="9tUGU_XWN2PTMox6wNer-2">
          <mxGeometry x="40" y="620" width="180" height="140" as="geometry"/>
        </mxCell>
        <mxCell id="9tUGU_XWN2PTMox6wNer-31" value="" style="rounded=0;whiteSpace=wrap;html=1;shadow=0;dashed=0;fontFamily=Verdana;verticalAlign=top;strokeColor=#333333;strokeWidth=2;gradientColor=none;labelBackgroundColor=none;fontStyle=1;textOpacity=10;opacity=10;" vertex="1" parent="9tUGU_XWN2PTMox6wNer-2">
          <mxGeometry x="69" y="645" width="122" height="90" as="geometry"/>
        </mxCell>
        <mxCell id="9tUGU_XWN2PTMox6wNer-32" value="&lt;table border=&quot;1&quot; width=&quot;100%&quot; height=&quot;100%&quot; style=&quot;width:100%;height:100%;border-collapse:collapse;&quot;&gt;&lt;tbody&gt;&lt;tr&gt;&lt;td align=&quot;center&quot;&gt;Value 1&lt;/td&gt;&lt;td align=&quot;center&quot;&gt;Value 2&lt;/td&gt;&lt;td align=&quot;center&quot;&gt;Value 3&lt;/td&gt;&lt;/tr&gt;&lt;tr&gt;&lt;td align=&quot;center&quot;&gt;Value 4&lt;/td&gt;&lt;td align=&quot;center&quot;&gt;Value 5&lt;/td&gt;&lt;td align=&quot;center&quot;&gt;Value 6&lt;/td&gt;&lt;/tr&gt;&lt;tr&gt;&lt;td align=&quot;center&quot;&gt;Value 7&lt;/td&gt;&lt;td align=&quot;center&quot;&gt;Value 8&lt;/td&gt;&lt;td align=&quot;center&quot;&gt;Value 9&lt;/td&gt;&lt;/tr&gt;&lt;/tbody&gt;&lt;/table&gt;" style="text;html=1;strokeColor=#999999;fillColor=#ffffff;overflow=fill;rounded=0;shadow=0;dashed=0;fontFamily=Verdana;align=center;strokeWidth=1;labelBackgroundColor=none;textOpacity=10;fontStyle=1;opacity=10;" vertex="1" parent="9tUGU_XWN2PTMox6wNer-2">
          <mxGeometry x="240" y="620" width="180" height="140" as="geometry"/>
        </mxCell>
        <mxCell id="9tUGU_XWN2PTMox6wNer-33" value="" style="rounded=0;whiteSpace=wrap;html=1;shadow=0;dashed=0;fontFamily=Verdana;verticalAlign=top;strokeColor=#333333;strokeWidth=2;gradientColor=none;labelBackgroundColor=none;fontStyle=1;textOpacity=10;opacity=10;" vertex="1" parent="9tUGU_XWN2PTMox6wNer-2">
          <mxGeometry x="269" y="645" width="122" height="90" as="geometry"/>
        </mxCell>
        <mxCell id="9tUGU_XWN2PTMox6wNer-34" value="&lt;table border=&quot;1&quot; width=&quot;100%&quot; height=&quot;100%&quot; style=&quot;width:100%;height:100%;border-collapse:collapse;&quot;&gt;&lt;tbody&gt;&lt;tr&gt;&lt;td align=&quot;center&quot;&gt;Value 1&lt;/td&gt;&lt;td align=&quot;center&quot;&gt;Value 2&lt;/td&gt;&lt;td align=&quot;center&quot;&gt;Value 3&lt;/td&gt;&lt;/tr&gt;&lt;tr&gt;&lt;td align=&quot;center&quot;&gt;Value 4&lt;/td&gt;&lt;td align=&quot;center&quot;&gt;Value 5&lt;/td&gt;&lt;td align=&quot;center&quot;&gt;Value 6&lt;/td&gt;&lt;/tr&gt;&lt;tr&gt;&lt;td align=&quot;center&quot;&gt;Value 7&lt;/td&gt;&lt;td align=&quot;center&quot;&gt;Value 8&lt;/td&gt;&lt;td align=&quot;center&quot;&gt;Value 9&lt;/td&gt;&lt;/tr&gt;&lt;/tbody&gt;&lt;/table&gt;" style="text;html=1;strokeColor=#999999;fillColor=#ffffff;overflow=fill;rounded=0;shadow=0;dashed=0;fontFamily=Verdana;align=center;strokeWidth=1;labelBackgroundColor=none;textOpacity=10;fontStyle=1;opacity=10;" vertex="1" parent="9tUGU_XWN2PTMox6wNer-2">
          <mxGeometry x="444" y="620" width="180" height="140" as="geometry"/>
        </mxCell>
        <mxCell id="9tUGU_XWN2PTMox6wNer-35" value="" style="rounded=0;whiteSpace=wrap;html=1;shadow=0;dashed=0;fontFamily=Verdana;verticalAlign=top;strokeColor=#333333;strokeWidth=2;gradientColor=none;labelBackgroundColor=none;fontStyle=1;textOpacity=10;opacity=10;" vertex="1" parent="9tUGU_XWN2PTMox6wNer-2">
          <mxGeometry x="473" y="645" width="122" height="90" as="geometry"/>
        </mxCell>
        <mxCell id="9tUGU_XWN2PTMox6wNer-36" value="&lt;table border=&quot;1&quot; width=&quot;100%&quot; height=&quot;100%&quot; style=&quot;width:100%;height:100%;border-collapse:collapse;&quot;&gt;&lt;tbody&gt;&lt;tr&gt;&lt;td align=&quot;center&quot;&gt;Value 1&lt;/td&gt;&lt;td align=&quot;center&quot;&gt;Value 2&lt;/td&gt;&lt;td align=&quot;center&quot;&gt;Value 3&lt;/td&gt;&lt;/tr&gt;&lt;tr&gt;&lt;td align=&quot;center&quot;&gt;Value 4&lt;/td&gt;&lt;td align=&quot;center&quot;&gt;Value 5&lt;/td&gt;&lt;td align=&quot;center&quot;&gt;Value 6&lt;/td&gt;&lt;/tr&gt;&lt;tr&gt;&lt;td align=&quot;center&quot;&gt;Value 7&lt;/td&gt;&lt;td align=&quot;center&quot;&gt;Value 8&lt;/td&gt;&lt;td align=&quot;center&quot;&gt;Value 9&lt;/td&gt;&lt;/tr&gt;&lt;/tbody&gt;&lt;/table&gt;" style="text;html=1;strokeColor=#999999;fillColor=#ffffff;overflow=fill;rounded=0;shadow=0;dashed=0;fontFamily=Verdana;align=center;strokeWidth=1;labelBackgroundColor=none;textOpacity=10;fontStyle=1;opacity=10;" vertex="1" parent="9tUGU_XWN2PTMox6wNer-2">
          <mxGeometry x="644" y="620" width="180" height="140" as="geometry"/>
        </mxCell>
        <mxCell id="9tUGU_XWN2PTMox6wNer-37" value="" style="rounded=0;whiteSpace=wrap;html=1;shadow=0;dashed=0;fontFamily=Verdana;verticalAlign=top;strokeColor=#333333;strokeWidth=2;gradientColor=none;labelBackgroundColor=none;fontStyle=1;textOpacity=10;opacity=10;" vertex="1" parent="9tUGU_XWN2PTMox6wNer-2">
          <mxGeometry x="673" y="645" width="122" height="90" as="geometry"/>
        </mxCell>
        <mxCell id="9tUGU_XWN2PTMox6wNer-38" value="&lt;table border=&quot;1&quot; width=&quot;100%&quot; height=&quot;100%&quot; style=&quot;width:100%;height:100%;border-collapse:collapse;&quot;&gt;&lt;tbody&gt;&lt;tr&gt;&lt;td align=&quot;center&quot;&gt;Value 1&lt;/td&gt;&lt;td align=&quot;center&quot;&gt;Value 2&lt;/td&gt;&lt;td align=&quot;center&quot;&gt;Value 3&lt;/td&gt;&lt;/tr&gt;&lt;tr&gt;&lt;td align=&quot;center&quot;&gt;Value 4&lt;/td&gt;&lt;td align=&quot;center&quot;&gt;Value 5&lt;/td&gt;&lt;td align=&quot;center&quot;&gt;Value 6&lt;/td&gt;&lt;/tr&gt;&lt;tr&gt;&lt;td align=&quot;center&quot;&gt;Value 7&lt;/td&gt;&lt;td align=&quot;center&quot;&gt;Value 8&lt;/td&gt;&lt;td align=&quot;center&quot;&gt;Value 9&lt;/td&gt;&lt;/tr&gt;&lt;/tbody&gt;&lt;/table&gt;" style="text;html=1;strokeColor=#999999;fillColor=#ffffff;overflow=fill;rounded=0;shadow=0;dashed=0;fontFamily=Verdana;align=center;strokeWidth=1;labelBackgroundColor=none;textOpacity=10;fontStyle=1;opacity=10;" vertex="1" parent="9tUGU_XWN2PTMox6wNer-2">
          <mxGeometry x="850" y="620" width="180" height="140" as="geometry"/>
        </mxCell>
        <mxCell id="9tUGU_XWN2PTMox6wNer-39" value="" style="rounded=0;whiteSpace=wrap;html=1;shadow=0;dashed=0;fontFamily=Verdana;verticalAlign=top;strokeColor=#333333;strokeWidth=2;gradientColor=none;labelBackgroundColor=none;fontStyle=1;textOpacity=10;opacity=10;" vertex="1" parent="9tUGU_XWN2PTMox6wNer-2">
          <mxGeometry x="879" y="645" width="122" height="90" as="geometry"/>
        </mxCell>
        <mxCell id="NEiJ8GbDT3Urdxzz2XcX-0" value="&lt;table border=&quot;1&quot; width=&quot;100%&quot; height=&quot;100%&quot; style=&quot;width:100%;height:100%;border-collapse:collapse;&quot;&gt;&lt;tr&gt;&lt;td align=&quot;center&quot;&gt;Value 1&lt;/td&gt;&lt;td align=&quot;center&quot;&gt;Value 2&lt;/td&gt;&lt;td align=&quot;center&quot;&gt;Value 3&lt;/td&gt;&lt;/tr&gt;&lt;tr&gt;&lt;td align=&quot;center&quot;&gt;Value 4&lt;/td&gt;&lt;td align=&quot;center&quot;&gt;Value 5&lt;/td&gt;&lt;td align=&quot;center&quot;&gt;Value 6&lt;/td&gt;&lt;/tr&gt;&lt;tr&gt;&lt;td align=&quot;center&quot;&gt;Value 7&lt;/td&gt;&lt;td align=&quot;center&quot;&gt;Value 8&lt;/td&gt;&lt;td align=&quot;center&quot;&gt;Value 9&lt;/td&gt;&lt;/tr&gt;&lt;/table&gt;" style="text;html=1;strokeColor=#999999;fillColor=#ffffff;overflow=fill;rounded=0;shadow=0;dashed=0;fontFamily=Verdana;align=center;strokeWidth=1;labelBackgroundColor=none;textOpacity=10;opacity=10;" vertex="1" parent="9tUGU_XWN2PTMox6wNer-2">
          <mxGeometry x="39" y="300" width="180" height="140" as="geometry"/>
        </mxCell>
        <mxCell id="NEiJ8GbDT3Urdxzz2XcX-1" value="" style="rounded=0;whiteSpace=wrap;html=1;shadow=0;dashed=0;fontFamily=Verdana;verticalAlign=top;strokeColor=#333333;strokeWidth=2;gradientColor=none;labelBackgroundColor=none;textOpacity=10;opacity=10;" vertex="1" parent="9tUGU_XWN2PTMox6wNer-2">
          <mxGeometry x="68" y="325" width="122" height="90" as="geometry"/>
        </mxCell>
        <mxCell id="394yJXkNLJWrKEKdF4VZ-16" value="" style="group" vertex="1" connectable="0" parent="9tUGU_XWN2PTMox6wNer-2">
          <mxGeometry x="157" y="247.5" width="725" height="565" as="geometry"/>
        </mxCell>
        <mxCell id="394yJXkNLJWrKEKdF4VZ-6" value="&lt;table border=&quot;1&quot; width=&quot;100%&quot; style=&quot;width: 100% ; height: 100% ; border-collapse: collapse&quot;&gt;&lt;tbody&gt;&lt;tr&gt;&lt;td align=&quot;center&quot;&gt;Value 1&lt;/td&gt;&lt;td align=&quot;center&quot;&gt;Value 2&lt;/td&gt;&lt;td align=&quot;center&quot;&gt;Value 3&lt;/td&gt;&lt;/tr&gt;&lt;tr&gt;&lt;td align=&quot;center&quot;&gt;Value 4&lt;/td&gt;&lt;td align=&quot;center&quot;&gt;&lt;b&gt;넷&lt;/b&gt;&lt;/td&gt;&lt;td align=&quot;center&quot;&gt;Value 6&lt;/td&gt;&lt;/tr&gt;&lt;tr&gt;&lt;td align=&quot;center&quot;&gt;Value 7&lt;/td&gt;&lt;td align=&quot;center&quot;&gt;Value 8&lt;/td&gt;&lt;td align=&quot;center&quot;&gt;Value 9&lt;/td&gt;&lt;/tr&gt;&lt;/tbody&gt;&lt;/table&gt;" style="text;html=1;strokeColor=#999999;fillColor=#ffffff;overflow=fill;rounded=0;shadow=0;dashed=0;fontFamily=Verdana;align=center;strokeWidth=1;labelBackgroundColor=none;" vertex="1" parent="394yJXkNLJWrKEKdF4VZ-16">
          <mxGeometry y="188.33333333333334" width="242.21218961625283" height="188.33333333333334" as="geometry"/>
        </mxCell>
        <mxCell id="394yJXkNLJWrKEKdF4VZ-7" value="&lt;table border=&quot;1&quot; width=&quot;100%&quot; style=&quot;width: 100% ; height: 100% ; border-collapse: collapse&quot;&gt;&lt;tbody&gt;&lt;tr&gt;&lt;td align=&quot;center&quot;&gt;Value 1&lt;/td&gt;&lt;td align=&quot;center&quot;&gt;Value 2&lt;/td&gt;&lt;td align=&quot;center&quot;&gt;Value 3&lt;/td&gt;&lt;/tr&gt;&lt;tr&gt;&lt;td align=&quot;center&quot;&gt;Value 4&lt;/td&gt;&lt;td align=&quot;center&quot;&gt;&lt;b&gt;하나&lt;/b&gt;&lt;/td&gt;&lt;td align=&quot;center&quot;&gt;Value 6&lt;/td&gt;&lt;/tr&gt;&lt;tr&gt;&lt;td align=&quot;center&quot;&gt;Value 7&lt;/td&gt;&lt;td align=&quot;center&quot;&gt;Value 8&lt;/td&gt;&lt;td align=&quot;center&quot;&gt;Value 9&lt;/td&gt;&lt;/tr&gt;&lt;/tbody&gt;&lt;/table&gt;" style="text;html=1;strokeColor=#999999;fillColor=#ffffff;overflow=fill;rounded=0;shadow=0;dashed=0;fontFamily=Verdana;align=center;strokeWidth=1;labelBackgroundColor=none;" vertex="1" parent="394yJXkNLJWrKEKdF4VZ-16">
          <mxGeometry width="242.21218961625283" height="188.33333333333334" as="geometry"/>
        </mxCell>
        <mxCell id="394yJXkNLJWrKEKdF4VZ-8" value="&lt;table border=&quot;1&quot; width=&quot;100%&quot; style=&quot;width: 100% ; height: 100% ; border-collapse: collapse&quot;&gt;&lt;tbody&gt;&lt;tr&gt;&lt;td align=&quot;center&quot;&gt;Value 1&lt;/td&gt;&lt;td align=&quot;center&quot;&gt;Value 2&lt;/td&gt;&lt;td align=&quot;center&quot;&gt;Value 3&lt;/td&gt;&lt;/tr&gt;&lt;tr&gt;&lt;td align=&quot;center&quot;&gt;Value 4&lt;/td&gt;&lt;td align=&quot;center&quot;&gt;&lt;b&gt;둘&lt;/b&gt;&lt;/td&gt;&lt;td align=&quot;center&quot;&gt;Value 6&lt;/td&gt;&lt;/tr&gt;&lt;tr&gt;&lt;td align=&quot;center&quot;&gt;Value 7&lt;/td&gt;&lt;td align=&quot;center&quot;&gt;Value 8&lt;/td&gt;&lt;td align=&quot;center&quot;&gt;Value 9&lt;/td&gt;&lt;/tr&gt;&lt;/tbody&gt;&lt;/table&gt;" style="text;html=1;strokeColor=#999999;fillColor=#ffffff;overflow=fill;rounded=0;shadow=0;dashed=0;fontFamily=Verdana;align=center;strokeWidth=1;labelBackgroundColor=none;" vertex="1" parent="394yJXkNLJWrKEKdF4VZ-16">
          <mxGeometry x="240.57562076749437" width="242.21218961625283" height="188.33333333333334" as="geometry"/>
        </mxCell>
        <mxCell id="394yJXkNLJWrKEKdF4VZ-9" value="&lt;table border=&quot;1&quot; width=&quot;100%&quot; style=&quot;width: 100% ; height: 100% ; border-collapse: collapse&quot;&gt;&lt;tbody&gt;&lt;tr&gt;&lt;td align=&quot;center&quot;&gt;Value 1&lt;/td&gt;&lt;td align=&quot;center&quot;&gt;Value 2&lt;/td&gt;&lt;td align=&quot;center&quot;&gt;Value 3&lt;/td&gt;&lt;/tr&gt;&lt;tr&gt;&lt;td align=&quot;center&quot;&gt;Value 4&lt;/td&gt;&lt;td align=&quot;center&quot;&gt;&lt;b&gt;셋&lt;/b&gt;&lt;/td&gt;&lt;td align=&quot;center&quot;&gt;Value 6&lt;/td&gt;&lt;/tr&gt;&lt;tr&gt;&lt;td align=&quot;center&quot;&gt;Value 7&lt;/td&gt;&lt;td align=&quot;center&quot;&gt;Value 8&lt;/td&gt;&lt;td align=&quot;center&quot;&gt;Value 9&lt;/td&gt;&lt;/tr&gt;&lt;/tbody&gt;&lt;/table&gt;" style="text;html=1;strokeColor=#999999;fillColor=#ffffff;overflow=fill;rounded=0;shadow=0;dashed=0;fontFamily=Verdana;align=center;strokeWidth=1;labelBackgroundColor=none;" vertex="1" parent="394yJXkNLJWrKEKdF4VZ-16">
          <mxGeometry x="482.78781038374717" width="242.21218961625283" height="188.33333333333334" as="geometry"/>
        </mxCell>
        <mxCell id="394yJXkNLJWrKEKdF4VZ-10" value="&lt;table border=&quot;1&quot; width=&quot;100%&quot; style=&quot;width: 100% ; height: 100% ; border-collapse: collapse&quot;&gt;&lt;tbody&gt;&lt;tr&gt;&lt;td align=&quot;center&quot;&gt;Value 1&lt;/td&gt;&lt;td align=&quot;center&quot;&gt;Value 2&lt;/td&gt;&lt;td align=&quot;center&quot;&gt;Value 3&lt;/td&gt;&lt;/tr&gt;&lt;tr&gt;&lt;td align=&quot;center&quot;&gt;Value 4&lt;/td&gt;&lt;td align=&quot;center&quot;&gt;&lt;b&gt;다섯&lt;/b&gt;&lt;/td&gt;&lt;td align=&quot;center&quot;&gt;Value 6&lt;/td&gt;&lt;/tr&gt;&lt;tr&gt;&lt;td align=&quot;center&quot;&gt;Value 7&lt;/td&gt;&lt;td align=&quot;center&quot;&gt;Value 8&lt;/td&gt;&lt;td align=&quot;center&quot;&gt;Value 9&lt;/td&gt;&lt;/tr&gt;&lt;/tbody&gt;&lt;/table&gt;" style="text;html=1;strokeColor=#999999;fillColor=#ffffff;overflow=fill;rounded=0;shadow=0;dashed=0;fontFamily=Verdana;align=center;strokeWidth=1;labelBackgroundColor=none;" vertex="1" parent="394yJXkNLJWrKEKdF4VZ-16">
          <mxGeometry x="482.78781038374717" y="188.33333333333334" width="242.21218961625283" height="188.33333333333334" as="geometry"/>
        </mxCell>
        <mxCell id="394yJXkNLJWrKEKdF4VZ-13" value="&lt;table border=&quot;1&quot; width=&quot;100%&quot; style=&quot;width: 100% ; height: 100% ; border-collapse: collapse&quot;&gt;&lt;tbody&gt;&lt;tr&gt;&lt;td align=&quot;center&quot;&gt;Value 1&lt;/td&gt;&lt;td align=&quot;center&quot;&gt;Value 2&lt;/td&gt;&lt;td align=&quot;center&quot;&gt;Value 3&lt;/td&gt;&lt;/tr&gt;&lt;tr&gt;&lt;td align=&quot;center&quot;&gt;Value 4&lt;/td&gt;&lt;td align=&quot;center&quot;&gt;&lt;b&gt;일곱&lt;/b&gt;&lt;/td&gt;&lt;td align=&quot;center&quot;&gt;Value 6&lt;/td&gt;&lt;/tr&gt;&lt;tr&gt;&lt;td align=&quot;center&quot;&gt;Value 7&lt;/td&gt;&lt;td align=&quot;center&quot;&gt;Value 8&lt;/td&gt;&lt;td align=&quot;center&quot;&gt;Value 9&lt;/td&gt;&lt;/tr&gt;&lt;/tbody&gt;&lt;/table&gt;" style="text;html=1;strokeColor=#999999;fillColor=#ffffff;overflow=fill;rounded=0;shadow=0;dashed=0;fontFamily=Verdana;align=center;strokeWidth=1;labelBackgroundColor=none;" vertex="1" parent="394yJXkNLJWrKEKdF4VZ-16">
          <mxGeometry x="240.57562076749437" y="376.6666666666667" width="242.21218961625283" height="188.33333333333334" as="geometry"/>
        </mxCell>
        <mxCell id="394yJXkNLJWrKEKdF4VZ-14" value="&lt;table border=&quot;1&quot; width=&quot;100%&quot; style=&quot;width: 100% ; height: 100% ; border-collapse: collapse&quot;&gt;&lt;tbody&gt;&lt;tr&gt;&lt;td align=&quot;center&quot;&gt;Value 1&lt;/td&gt;&lt;td align=&quot;center&quot;&gt;Value 2&lt;/td&gt;&lt;td align=&quot;center&quot;&gt;Value 3&lt;/td&gt;&lt;/tr&gt;&lt;tr&gt;&lt;td align=&quot;center&quot;&gt;Value 4&lt;/td&gt;&lt;td align=&quot;center&quot;&gt;&lt;b&gt;여섯&lt;/b&gt;&lt;/td&gt;&lt;td align=&quot;center&quot;&gt;Value 6&lt;/td&gt;&lt;/tr&gt;&lt;tr&gt;&lt;td align=&quot;center&quot;&gt;Value 7&lt;/td&gt;&lt;td align=&quot;center&quot;&gt;Value 8&lt;/td&gt;&lt;td align=&quot;center&quot;&gt;Value 9&lt;/td&gt;&lt;/tr&gt;&lt;/tbody&gt;&lt;/table&gt;" style="text;html=1;strokeColor=#999999;fillColor=#ffffff;overflow=fill;rounded=0;shadow=0;dashed=0;fontFamily=Verdana;align=center;strokeWidth=1;labelBackgroundColor=none;" vertex="1" parent="394yJXkNLJWrKEKdF4VZ-16">
          <mxGeometry y="376.6666666666667" width="242.21218961625283" height="188.33333333333334" as="geometry"/>
        </mxCell>
        <mxCell id="394yJXkNLJWrKEKdF4VZ-15" value="&lt;table border=&quot;1&quot; width=&quot;100%&quot; style=&quot;width: 100% ; height: 100% ; border-collapse: collapse&quot;&gt;&lt;tbody&gt;&lt;tr&gt;&lt;td align=&quot;center&quot;&gt;Value 1&lt;/td&gt;&lt;td align=&quot;center&quot;&gt;Value 2&lt;/td&gt;&lt;td align=&quot;center&quot;&gt;Value 3&lt;/td&gt;&lt;/tr&gt;&lt;tr&gt;&lt;td align=&quot;center&quot;&gt;Value 4&lt;/td&gt;&lt;td align=&quot;center&quot;&gt;여덟&lt;/td&gt;&lt;td align=&quot;center&quot;&gt;Value 6&lt;/td&gt;&lt;/tr&gt;&lt;tr&gt;&lt;td align=&quot;center&quot;&gt;Value 7&lt;/td&gt;&lt;td align=&quot;center&quot;&gt;Value 8&lt;/td&gt;&lt;td align=&quot;center&quot;&gt;Value 9&lt;/td&gt;&lt;/tr&gt;&lt;/tbody&gt;&lt;/table&gt;" style="text;html=1;strokeColor=#999999;fillColor=#ffffff;overflow=fill;rounded=0;shadow=0;dashed=0;fontFamily=Verdana;align=center;strokeWidth=1;labelBackgroundColor=none;" vertex="1" parent="394yJXkNLJWrKEKdF4VZ-16">
          <mxGeometry x="482.78781038374717" y="376.6666666666667" width="242.21218961625283" height="188.33333333333334" as="geometry"/>
        </mxCell>
        <mxCell id="394yJXkNLJWrKEKdF4VZ-2" value="저장" style="rounded=1;whiteSpace=wrap;html=1;strokeColor=#333333;strokeWidth=2;" vertex="1" parent="9tUGU_XWN2PTMox6wNer-2">
          <mxGeometry x="762" y="218" width="60" height="30" as="geometry"/>
        </mxCell>
        <mxCell id="394yJXkNLJWrKEKdF4VZ-5" value="삭제" style="rounded=1;whiteSpace=wrap;html=1;strokeColor=#333333;strokeWidth=2;" vertex="1" parent="9tUGU_XWN2PTMox6wNer-2">
          <mxGeometry x="822" y="218" width="60" height="30" as="geometry"/>
        </mxCell>
        <mxCell id="9tUGU_XWN2PTMox6wNer-40" value="&lt;table border=&quot;1&quot; width=&quot;100%&quot; style=&quot;width: 100% ; height: 100% ; border-collapse: collapse&quot;&gt;&lt;tbody&gt;&lt;tr&gt;&lt;td align=&quot;center&quot;&gt;하나&lt;/td&gt;&lt;td align=&quot;center&quot;&gt;둘&lt;/td&gt;&lt;td align=&quot;center&quot;&gt;셋&lt;/td&gt;&lt;/tr&gt;&lt;tr&gt;&lt;td align=&quot;center&quot;&gt;넷&lt;/td&gt;&lt;td align=&quot;center&quot;&gt;&lt;b&gt;주제&lt;/b&gt;&lt;/td&gt;&lt;td align=&quot;center&quot;&gt;다섯&lt;/td&gt;&lt;/tr&gt;&lt;tr&gt;&lt;td align=&quot;center&quot;&gt;여섯&lt;/td&gt;&lt;td align=&quot;center&quot;&gt;일곱&lt;/td&gt;&lt;td align=&quot;center&quot;&gt;여덟&lt;/td&gt;&lt;/tr&gt;&lt;/tbody&gt;&lt;/table&gt;" style="text;html=1;strokeColor=#999999;fillColor=#ffffff;overflow=fill;rounded=0;shadow=0;dashed=0;fontFamily=Verdana;align=center;strokeWidth=1;labelBackgroundColor=none;aspect=fixed;allowArrows=1;resizable=1;autosize=0;imageAspect=0;" vertex="1" parent="9tUGU_XWN2PTMox6wNer-2">
          <mxGeometry x="398.07562076749434" y="435.83333333333337" width="242.21218961625283" height="188.33333333333334" as="geometry"/>
        </mxCell>
      </root>
    </mxGraphModel>
  </diagram>
</mxfile>
